<svg width="531" height="379" xmlns="http://www.w3.org/2000/svg" xmlns:xlink="http://www.w3.org/1999/xlink" overflow="hidden"><defs><clipPath id="clip0"><rect x="394" y="138" width="531" height="379"/></clipPath></defs><g clip-path="url(#clip0)" transform="translate(-394 -138)"><path d="M587.724 191.854C588.945 192.436 590.077 193.018 591.298 193.578 592.429 194.905 593.274 195.465 594.013 196.629 594.39 196.629 594.39 197.212 594.39 197.935 594.013 197.935 594.013 198.517 593.651 198.517 593.651 198.517 593.651 197.935 593.274 197.935 592.897 197.212 592.052 196.629 591.298 196.047L591.675 196.047C590.921 195.465 590.077 194.905 589.322 194.324 588.945 193.578 588.19 193.578 587.347 193.018 587.347 193.018 586.97 192.436 587.347 192.436L587.347 191.854ZM720.486 137.983C714.559 137.983 708.738 139.148 702.072 141.035 695.767 143.505 689.192 146.417 682.526 151.357 676.598 154.968 671.154 159.768 666.087 165.874 664.488 167.598 663.357 168.902 661.758 170.65 660.536 173.12 659.029 175.45 657.445 177.337 655.846 180.39 654.338 182.696 652.74 185.748 651.608 188.218 650.01 190.688 648.411 193.018 645.696 197.212 642.59 202.735 638.654 206.952 636.679 209.421 635.17 210.563 633.194 211.728 632.35 212.451 631.595 213.033 630.48 213.033L628.88 213.033C628.127 213.033 627.66 212.451 627.283 212.451 626.528 211.728 626.151 211.728 625.774 210.563 624.93 209.981 624.552 209.421 623.798 208.093 622.954 206.37 622.199 204.482 621.46 201.57 621.083 200.265 620.602 199.099 620.602 197.212 620.24 196.047 620.24 194.905 619.863 193.578 619.863 191.271 619.485 188.801 619.863 185.748L619.863 181.531 619.863 177.92C619.863 175.45 619.863 173.12 619.485 170.65 619.108 168.902 618.731 166.456 617.51 163.986 616.755 162.239 615.534 160.351 614.025 158.604 612.064 156.134 609.335 154.386 606.515 152.499 601.825 149.47 596.366 147.723 589.699 147.723L589.322 147.723C586.215 147.723 583.033 148.305 580.68 148.887 577.574 149.47 574.482 150.052 571.752 150.775 568.932 151.357 565.84 152.499 562.734 153.664 559.536 154.386 556.445 155.551 553.338 156.134 548.632 158.021 543.565 159.768 538.392 161.656 536.522 162.239 534.546 162.821 532.193 163.404 523.928 166.456 517.73 168.181 511.426 169.485 507.112 170.65 502.784 171.232 498.471 171.232L496.963 171.232C495.365 171.232 493.766 171.232 492.272 170.65 490.296 170.65 487.945 170.65 485.969 170.067 481.655 169.485 477.794 168.181 473.48 167.016 470.284 165.874 466.8 165.291 463.709 164.569 460.134 163.404 456.665 162.821 453.468 162.821 452.337 162.239 450.739 162.239 449.607 162.239 446.787 162.239 444.449 162.821 442.097 163.404 436.652 163.986 431.193 167.016 426.125 171.232 424.149 173.12 422.174 175.45 419.837 177.92 417.861 180.39 415.885 183.418 413.532 187.054 410.44 192.436 407.334 199.682 404.513 207.535 402.16 214.781 399.824 222.609 398.315 231.185 396.716 239.013 395.962 246.866 395.118 255.277 394.74 263.851 395.118 272.262 395.962 281.395 397.471 299.547 401.407 318.281 407.71 338.737 410.802 347.896 413.909 357.611 418.237 367.77 421.797 376.344 425.658 385.339 429.971 394.472 433.923 402.324 437.874 410.736 442.564 418.588 444.449 422.2 446.425 425.253 448.763 429.47 451.116 433.826 453.468 437.439 455.806 441.072 458.535 445.29 462.11 449.508 465.579 453.701 472.26 463.441 480.147 471.852 487.945 479.099 498.939 489.421 511.064 497.832 523.928 503.938 530.218 506.966 536.899 509.296 543.942 511.183 546.671 511.766 549.764 512.348 553.338 512.931 557.183 513.654 561.134 514.236 564.71 514.819 574.859 515.401 584.994 515.983 596.742 515.983 602.67 515.983 608.868 515.983 615.911 515.401 630.841 515.401 645.696 514.236 660.159 512.931L667.203 512.348C683.657 511.183 701.318 510.019 718.511 510.019L736.17 510.019C738.056 510.019 740.394 510.601 742.369 510.601L765.489 510.601C783.527 510.019 797.99 508.131 812.091 505.661 828.153 502.05 841.861 496.667 854.742 489.421 860.186 485.786 865.736 481.568 871.18 477.375 876.263 472.435 880.954 467.635 886.021 461.554 895.416 450.067 903.696 436.716 909.985 421.617 913.091 414.372 915.806 406.542 917.782 397.525 920.135 388.974 921.733 379.956 922.864 370.24 924.448 353.977 924.448 336.991 922.11 319.446 920.889 311.01 918.913 302.459 916.561 294.608 914.207 286.778 911.115 279.509 907.632 272.844 905.656 269.793 903.696 267.463 901.343 264.433 898.99 261.963 896.638 259.633 893.546 257.747 887.618 253.529 880.954 251.059 875.508 249.917 871.935 248.752 868.088 248.031 864.138 247.448 863.006 246.866 861.407 246.866 859.809 246.283 857.472 246.283 855.119 245.699 852.389 245.117 847.699 243.813 843.747 243.231 840.278 242.066 836.704 240.761 833.22 239.013 829.284 236.543 825.424 234.236 821.864 231.185 818.38 228.132 815.183 225.079 811.714 221.467 808.139 217.833 801.097 209.421 794.053 199.682 787.372 190.688 785.879 188.218 783.904 185.166 781.928 182.696 774.13 171.815 765.112 160.351 755.339 151.94 750.633 147.723 745.566 144.67 740.394 142.201 734.95 139.871 728.66 138.566 722.447 137.983Z" fill="#7CDD59" fill-rule="evenodd" fill-opacity="0.290196"/><path d="M526.444 384.983C524.008 384.983 521.985 387.6 521.985 390.751L521.985 401.227C521.783 404.366 523.805 406.983 526.444 406.983L763.512 406.983C765.939 406.983 767.971 404.366 767.971 401.227L767.971 390.751C767.971 387.6 765.939 384.983 763.512 384.983Z" fill="#884E07" fill-rule="evenodd"/><path d="M534.446 207.983C532 207.983 529.971 210.512 529.971 213.56L529.971 379.407C529.971 382.453 532 384.983 534.446 384.983L753.495 384.983C755.931 384.983 757.971 382.453 757.971 379.407L757.971 213.56C757.971 210.512 755.931 207.983 753.495 207.983Z" fill="#884E07" fill-rule="evenodd"/><path d="M742.526 207.983 742.526 358.642C742.526 361.943 740.487 364.472 738.051 364.472L529.971 364.472 529.971 379.407C529.971 382.453 532 384.983 534.446 384.983L753.495 384.983C755.931 384.983 757.971 382.453 757.971 379.407L757.971 213.56C757.971 210.512 755.931 207.983 753.495 207.983Z" fill="#996600" fill-rule="evenodd"/><path d="M543.64 216.983C540.373 216.983 537.768 220.148 537.984 224.104L537.984 355.863C537.984 359.818 540.373 362.983 543.64 362.983L744.097 362.983C747.354 362.983 749.971 359.818 749.971 355.863L749.971 224.104C749.971 220.148 747.354 216.983 744.097 216.983Z" fill="#00B050" fill-rule="evenodd"/><path d="M736.05 216.983 736.05 327.807C736.05 337.86 729.307 346.061 721.045 346.061L537.971 346.061 537.971 356.114C537.971 359.813 540.359 362.983 543.628 362.983L744.097 362.983C747.354 362.983 749.971 359.813 749.971 356.114L749.971 224.116C749.971 220.154 747.354 216.983 744.097 216.983Z" fill="#7CDD59" fill-rule="evenodd" fill-opacity="0.4"/><path d="M588.376 356.983C583.157 356.983 578.971 362.08 578.971 368.435L578.971 384.983 629.971 384.983 629.971 368.435C629.971 362.08 625.796 356.983 620.567 356.983Z" fill="#E3E9ED" fill-rule="evenodd"/><path d="M608.971 356.983C612.182 359.537 614.109 363.859 614.109 368.435L614.109 384.983 629.971 384.983 629.971 368.435C629.971 362.08 625.475 356.983 620.112 356.983Z" fill="#91A8B9" fill-rule="evenodd"/><path d="M502.55 207.983C492.368 207.983 483.971 219.336 483.971 233.086 483.971 246.835 492.368 257.983 502.55 257.983 512.765 257.983 520.971 246.835 520.971 233.086 520.971 219.336 512.765 207.983 502.55 207.983Z" fill="#BDC0BD" fill-rule="evenodd"/><path d="M502.855 211.983C502.434 211.983 502.011 212 501.583 212.042 492.753 213.101 486.35 223.653 487.019 235.316 487.793 246.513 494.682 254.983 502.874 254.983 503.366 254.983 503.87 254.949 504.374 254.89 513.203 253.78 519.72 243.439 518.901 231.564 518.151 220.266 511.143 211.983 502.855 211.983Z" fill="#FFFFFF" fill-rule="evenodd"/><path d="M502.137 214.984C502.073 214.984 501.973 215.094 501.973 215.094L501.973 216.734C501.973 217.472 501.973 218.155 502.429 218.893 502.429 218.957 502.467 218.984 502.521 218.984 502.649 218.984 502.888 218.811 502.888 218.611 503.172 217.928 502.659 216.962 502.659 216.278 502.659 216.051 502.659 215.094 502.201 215.094 502.201 215.012 502.174 214.984 502.137 214.984Z" fill="#231F20" fill-rule="evenodd"/><path d="M502.377 246.98C502.172 246.98 501.973 247.108 501.973 247.372 502.164 248.756 502.164 250.406 502.354 251.791 502.446 251.917 502.553 251.98 502.66 251.98 502.766 251.98 502.874 251.917 502.973 251.791 502.973 250.406 502.783 248.756 502.783 247.372 502.783 247.108 502.576 246.98 502.377 246.98Z" fill="#231F20" fill-rule="evenodd"/><path d="M492.826 234.984C492.4 234.984 492.076 234.984 491.775 235.22L491.048 235.22C490.948 235.455 490.948 235.691 491.048 235.691 491.265 235.909 491.502 235.984 491.743 235.984 492.092 235.984 492.457 235.824 492.826 235.691 493.022 235.691 493.022 234.984 492.826 234.984Z" fill="#231F20" fill-rule="evenodd"/><path d="M515.651 232.984C514.906 232.984 513.867 232.984 512.973 233.234L512.973 233.734C513.867 233.984 514.906 233.984 515.651 233.984 516.081 233.984 516.081 232.984 515.651 232.984Z" fill="#231F20" fill-rule="evenodd"/><path d="M492.13 225.984C491.973 225.984 491.973 226.227 491.973 226.227 492.13 226.712 492.793 227.013 493.106 227.256 493.613 227.499 494.076 227.984 494.739 227.984 495.052 227.984 495.052 227.013 494.739 227.013 493.763 227.013 492.949 226.47 492.13 225.984Z" fill="#231F20" fill-rule="evenodd"/><path d="M496.084 217.98C496.023 217.98 495.973 218.195 495.973 218.443 496.165 219.85 496.356 221.596 496.665 222.788 496.707 222.924 496.753 222.98 496.791 222.98 496.925 222.98 497.021 222.383 496.948 221.945 496.57 221.032 496.356 219.569 496.165 218.094 496.138 218.014 496.107 217.98 496.084 217.98Z" fill="#231F20" fill-rule="evenodd"/><path d="M509.76 217.979C509.698 217.979 509.632 218.026 509.565 218.127 508.836 219.106 508.246 220.57 507.973 221.783 507.973 221.979 508.107 221.979 508.246 221.979 508.836 220.766 509.287 219.74 509.843 218.715 510.083 218.418 509.954 217.979 509.76 217.979Z" fill="#231F20" fill-rule="evenodd"/><path d="M513.744 224.984C513.219 225.165 512.733 225.604 512.37 225.896 511.884 226.224 511.359 226.364 511.041 226.657 510.878 226.803 511.041 226.984 511.197 226.984 511.722 226.984 512.207 226.51 512.532 226.364 513.057 226.078 513.544 225.75 513.906 225.312 514.069 225.165 513.906 224.984 513.744 224.984Z" fill="#231F20" fill-rule="evenodd"/><path d="M507.227 244.984C507.08 244.984 506.973 245.062 506.973 245.062 507.216 245.596 507.461 245.994 507.461 246.349 507.704 246.697 507.939 247.273 507.939 247.629 508.046 247.878 508.251 247.984 508.447 247.984 508.72 247.984 508.973 247.785 508.973 247.451 508.73 247.096 508.495 246.52 508.183 245.994 507.939 245.596 507.939 245.241 507.461 245.062 507.373 245.006 507.295 244.984 507.227 244.984Z" fill="#231F20" fill-rule="evenodd"/><path d="M512.558 243.192C512.602 243.192 512.646 243.212 512.685 243.226L512.685 243.226C512.58 243.232 512.48 243.326 512.419 243.528 512.419 243.36 512.419 243.36 512.558 243.192ZM511.112 241.984C510.973 241.984 510.973 242.152 510.973 242.152 510.973 242.32 511.112 242.481 511.112 242.481 511.389 242.863 511.56 243.024 511.838 243.36 511.937 243.481 512.425 243.984 512.735 243.984 512.846 243.984 512.934 243.917 512.973 243.736 512.973 243.454 512.862 243.273 512.729 243.232L512.729 243.232C512.724 243.226 512.713 243.212 512.696 243.192 512.558 243.192 512.558 243.024 512.419 243.024 512.247 242.863 512.109 242.695 511.838 242.481 511.699 242.32 511.25 241.984 511.112 241.984Z" fill="#231F20" fill-rule="evenodd"/><path d="M499.569 245.984C499.484 245.984 499.408 246.014 499.355 246.092 499.164 246.814 498.783 247.36 498.546 248.092 498.355 248.638 497.973 248.882 497.973 249.614 497.973 249.78 498.164 249.984 498.34 249.984 498.416 249.984 498.484 249.945 498.546 249.857 498.973 249.37 498.973 248.638 499.164 248.092 499.355 247.604 499.737 247.126 499.973 246.336 499.973 246.16 499.759 245.984 499.569 245.984Z" fill="#231F20" fill-rule="evenodd"/><path d="M495.738 241.984C495.641 241.984 495.531 242.054 495.477 242.248 495.326 242.679 494.986 242.899 494.683 243.611 494.532 243.832 494.229 244.052 494.04 244.492 493.889 244.492 494.04 244.765 494.04 244.984 494.38 244.984 494.835 244.272 494.986 244.052 495.326 243.611 495.78 243.119 495.932 242.459 496.047 242.187 495.901 241.984 495.738 241.984Z" fill="#231F20" fill-rule="evenodd"/><path d="M503.259 231.984C502.61 231.984 501.96 232.831 501.96 233.353 501.96 234.2 502.61 234.984 503.259 234.984 504.311 234.984 504.96 234.2 504.96 233.353 504.96 232.831 504.311 231.984 503.259 231.984Z" fill="#F4992B" fill-rule="evenodd"/><path d="M503.465 223.982 501.96 226.61 503.223 226.61 503.223 232.983 504.246 232.983 504.006 226.61 504.96 226.399 503.465 223.982Z" fill="#F4992B" fill-rule="evenodd"/><path d="M511.04 231.984 511.04 233.003 502.97 233.003 502.97 233.965 511.04 233.724 511.04 234.984 512.97 233.484 511.04 231.984Z" fill="#F4992B" fill-rule="evenodd"/><path d="M491.471 289.977C491.203 289.977 490.973 290.293 490.973 290.728L490.973 292.23C490.973 292.66 491.203 292.977 491.471 292.977L494.475 292.977C494.763 292.977 494.973 292.66 494.973 292.23L494.973 290.728C494.973 290.293 494.743 289.977 494.475 289.977Z" fill="#FFFFFF" fill-rule="evenodd"/><path d="M491.471 294.984C491.203 294.984 490.973 295.327 490.973 295.728L490.973 297.241C490.973 297.641 491.203 297.984 491.471 297.984L494.475 297.984C494.763 297.984 494.973 297.641 494.973 297.241L494.973 295.728C494.973 295.327 494.743 294.984 494.475 294.984Z" fill="#FFFFFF" fill-rule="evenodd"/><path d="M491.471 300.977C491.203 300.977 490.973 301.293 490.973 301.728L490.973 303.227C490.973 303.63 491.203 303.977 491.471 303.977L494.475 303.977C494.763 303.977 494.973 303.63 494.973 303.227L494.973 301.728C494.973 301.293 494.743 300.977 494.475 300.977Z" fill="#FFFFFF" fill-rule="evenodd"/><path d="M498.487 300.977C498.2 300.977 497.973 301.293 497.973 301.728L497.973 303.227C497.973 303.63 498.2 303.977 498.487 303.977L501.459 303.977C501.746 303.977 501.973 303.63 501.973 303.227L501.973 301.728C501.973 301.293 501.746 300.977 501.459 300.977Z" fill="#FFFFFF" fill-rule="evenodd"/><path d="M505.471 300.977C505.203 300.977 504.973 301.293 504.973 301.728L504.973 303.227C504.973 303.63 505.203 303.977 505.471 303.977L508.476 303.977C508.744 303.977 508.973 303.63 508.973 303.227L508.973 301.728C508.973 301.293 508.744 300.977 508.476 300.977Z" fill="#FFFFFF" fill-rule="evenodd"/><path d="M498.487 294.984C498.2 294.984 497.973 295.327 497.973 295.728L497.973 297.241C497.973 297.641 498.2 297.984 498.487 297.984L501.459 297.984C501.746 297.984 501.973 297.641 501.973 297.241L501.973 295.728C501.973 295.327 501.746 294.984 501.459 294.984Z" fill="#FFFFFF" fill-rule="evenodd"/><path d="M498.487 289.977C498.2 289.977 497.973 290.293 497.973 290.728L497.973 292.23C497.973 292.66 498.2 292.977 498.487 292.977L501.459 292.977C501.746 292.977 501.973 292.66 501.973 292.23L501.973 290.728C501.973 290.293 501.746 289.977 501.459 289.977Z" fill="#FFFFFF" fill-rule="evenodd"/><path d="M498.487 305.984C498.2 305.984 497.973 306.327 497.973 306.728L497.973 308.214C497.973 308.641 498.2 308.984 498.487 308.984L501.459 308.984C501.746 308.984 501.973 308.641 501.973 308.214L501.973 306.728C501.973 306.327 501.746 305.984 501.459 305.984Z" fill="#FFFFFF" fill-rule="evenodd"/><path d="M511.487 300.977C511.202 300.977 510.973 301.293 510.973 301.728L510.973 303.227C510.973 303.63 511.202 303.977 511.487 303.977L514.479 303.977C514.746 303.977 514.973 303.63 514.973 303.227L514.973 301.728C514.973 301.293 514.746 300.977 514.479 300.977Z" fill="#FFFFFF" fill-rule="evenodd"/><path d="M511.487 289.977C511.202 289.977 510.973 290.293 510.973 290.728L510.973 292.23C510.973 292.66 511.202 292.977 511.487 292.977L514.479 292.977C514.746 292.977 514.973 292.66 514.973 292.23L514.973 290.728C514.973 290.293 514.746 289.977 514.479 289.977Z" fill="#FFFFFF" fill-rule="evenodd"/><path d="M511.487 305.984C511.202 305.984 510.973 306.327 510.973 306.728L510.973 308.214C510.973 308.641 511.202 308.984 511.487 308.984L514.479 308.984C514.746 308.984 514.973 308.641 514.973 308.214L514.973 306.728C514.973 306.327 514.746 305.984 514.479 305.984Z" fill="#FFFFFF" fill-rule="evenodd"/><path d="M505.471 294.984C505.203 294.984 504.973 295.327 504.973 295.728L504.973 297.241C504.973 297.641 505.203 297.984 505.471 297.984L508.476 297.984C508.744 297.984 508.973 297.641 508.973 297.241L508.973 295.728C508.973 295.327 508.744 294.984 508.476 294.984Z" fill="#FFFFFF" fill-rule="evenodd"/><path d="M505.471 289.977C505.203 289.977 504.973 290.293 504.973 290.728L504.973 292.23C504.973 292.66 505.203 292.977 505.471 292.977L508.476 292.977C508.744 292.977 508.973 292.66 508.973 292.23L508.973 290.728C508.973 290.293 508.744 289.977 508.476 289.977Z" fill="#FFFFFF" fill-rule="evenodd"/><path d="M511.487 294.984C511.202 294.984 510.973 295.327 510.973 295.728L510.973 297.241C510.973 297.641 511.202 297.984 511.487 297.984L514.479 297.984C514.746 297.984 514.973 297.641 514.973 297.241L514.973 295.728C514.973 295.327 514.746 294.984 514.479 294.984Z" fill="#FFFFFF" fill-rule="evenodd"/><path d="M505.471 305.984C505.203 305.984 504.973 306.327 504.973 306.728L504.973 308.214C504.973 308.641 505.203 308.984 505.471 308.984L508.476 308.984C508.744 308.984 508.973 308.641 508.973 308.214L508.973 306.728C508.973 306.327 508.744 305.984 508.476 305.984Z" fill="#FFFFFF" fill-rule="evenodd"/><path d="M770.471 217.483 868.471 217.483 868.471 313.483 770.471 313.483Z" stroke="#B9903E" stroke-width="1.26751" stroke-linejoin="round" stroke-miterlimit="10" fill="#FCC557" fill-rule="evenodd"/><path d="M784.457 230.483C783.794 230.483 783.116 230.939 782.604 231.649 782.31 232.058 782.641 233.071 782.895 233.552 783.15 234.032 783.465 234.569 783.406 235.206 783.163 235.417 782.853 235.472 782.563 235.472 782.486 235.472 782.41 235.467 782.337 235.463 782.218 235.452 782.097 235.426 781.978 235.426 781.894 235.426 781.812 235.44 781.732 235.482 781.538 235.583 781.369 235.941 781.444 236.263 781.31 236.658 781.151 236.864 781.305 237.236 781.426 237.524 781.631 237.764 781.629 238.119 781.628 238.4 781.488 238.627 781.34 238.753 781.192 238.879 781.026 238.943 780.885 239.095 780.448 239.569 780.445 240.633 780.491 241.512 780.774 242.103 780.818 243.122 780.682 243.848 780.63 244.125 780.547 244.419 780.604 244.692 780.672 245.004 780.888 245.127 781.077 245.21 781.285 245.303 781.511 245.387 781.726 245.387 781.929 245.387 782.123 245.311 782.279 245.09 782.649 244.571 783.106 244.394 783.593 244.394 784.227 244.394 784.913 244.692 785.52 244.925 785.891 245.068 786.281 245.3 786.498 245.831 786.788 246.54 786.664 247.524 786.425 248.288 786.188 249.049 785.846 249.728 785.696 250.55 785.554 251.322 785.593 252.152 785.635 252.959 785.685 253.951 785.746 254.997 786.084 255.809 786.438 256.662 786.662 257.935 786.633 258.976 786.611 259.814 786.437 260.637 786.482 261.472 786.564 262.986 787.333 264.121 788.116 264.849 788.937 265.612 789.643 266.91 789.926 268.425 790.068 269.187 790.11 269.992 790.235 270.762 790.452 272.095 790.922 273.305 791.559 274.166 792.021 274.794 792.782 275.015 793.365 275.195 793.667 275.289 793.993 275.364 794.221 275.714 794.326 275.876 794.401 276.085 794.502 276.256 794.989 277.076 795.885 276.738 796.378 277.548 796.505 277.757 796.592 278.025 796.703 278.259 796.978 278.83 797.409 279.173 797.842 279.173 797.883 279.173 797.925 279.169 797.966 279.163L797.966 279.163C797.854 279.779 798.289 280.502 798.155 281.103 798.047 281.589 797.721 281.801 797.497 282.153 797.109 282.763 797.048 283.806 797.216 284.66 797.384 285.513 797.738 286.218 798.091 286.887 798.748 288.127 799.539 288.729 800.251 289.876 800.912 290.94 801.062 292.662 800.916 294.189 800.772 295.716 800.379 297.137 800.097 298.608 799.573 301.358 799.445 304.378 799.947 307.139 800.448 309.9 801.624 312.363 803.196 313.448 803.232 313.473 803.268 313.483 803.306 313.483 803.454 313.483 803.61 313.313 803.712 313.126 803.839 312.891 803.867 312.517 803.777 312.236 803.493 311.346 802.989 310.587 802.62 309.792 802.503 309.542 802.381 309.26 802.397 308.942 802.414 308.585 802.594 308.329 802.727 308.051 802.929 307.625 803.036 307.092 803.028 306.545 803.02 306.036 802.846 305.538 802.856 305.029 802.866 304.52 803.027 303.983 803.311 303.819 803.44 303.745 803.583 303.752 803.709 303.658 804.118 303.35 804.052 302.287 804.349 301.714 804.487 301.449 804.69 301.317 804.876 301.163 805.67 300.514 806.322 299.229 806.393 297.738 806.453 296.543 806.196 295.095 806.73 294.313 806.962 293.971 807.254 293.9 807.565 293.9 807.79 293.9 808.024 293.937 808.253 293.937 808.375 293.937 808.493 293.927 808.61 293.895 808.87 293.824 809.042 293.412 809.163 293.016 809.285 292.619 809.299 292.148 809.255 291.707 809.202 291.165 809.065 290.633 809.096 290.086 809.137 289.315 809.492 288.721 809.766 288.104 810.091 287.37 810.322 286.529 810.444 285.633 810.581 284.614 810.198 283.412 809.661 282.903 809.123 282.395 808.481 282.382 807.867 282.351 807.252 282.322 806.602 282.243 806.1 281.638 805.64 281.086 805.381 280.182 805.018 279.451 804.405 278.218 803.513 277.505 802.652 276.829 802.405 276.635 802.135 276.439 801.871 276.439 801.786 276.439 801.703 276.459 801.621 276.505 801.487 276.579 801.366 276.722 801.227 276.767 801.193 276.778 801.16 276.783 801.126 276.783 800.791 276.783 800.508 276.25 800.198 275.965 800.04 275.821 799.867 275.755 799.694 275.755 799.085 275.755 798.461 276.56 798.411 277.621 798.312 277.68 798.19 277.709 798.06 277.709 797.713 277.709 797.31 277.501 797.159 277.096 797.01 276.695 796.95 276.135 796.693 275.952 796.555 275.855 796.383 275.892 796.272 275.726 796.086 275.448 796.23 274.945 796.263 274.529 796.316 273.864 796.024 273.233 795.67 272.943 795.314 272.653 794.907 272.63 794.514 272.609 794.119 272.587 793.712 272.557 793.36 272.256 792.674 271.672 792.392 270.088 792.694 268.886 792.987 267.715 793.744 266.982 794.493 266.982 794.511 266.982 794.531 266.982 794.549 266.984 795.3 267.021 796.094 267.953 796.101 269.234 796.103 269.437 796.223 269.527 796.353 269.527 796.431 269.527 796.513 269.494 796.574 269.434 796.74 269.274 796.827 268.949 796.867 268.632 796.907 268.315 796.914 267.985 796.97 267.676 797.101 266.964 797.521 266.441 797.959 266.441 797.963 266.441 797.966 266.441 797.969 266.441 797.972 266.441 797.974 266.441 797.977 266.441 798.433 266.441 798.754 265.666 799.079 265.117 799.407 264.564 799.602 263.733 799.473 262.98 799.402 262.574 799.244 262.165 799.323 261.765 799.385 261.452 799.575 261.27 799.754 261.142 800.206 260.821 800.69 260.656 801.178 260.656 801.229 260.656 801.281 260.657 801.331 260.66 801.346 260.662 801.361 260.663 801.375 260.663 801.815 260.663 802.049 260.171 802.28 259.506 802.453 259.009 802.529 258.383 802.805 258.047 802.957 257.859 803.132 257.803 803.318 257.803 803.599 257.803 803.906 257.934 804.197 257.934 804.229 257.934 804.261 257.933 804.294 257.929 805.032 257.844 805.609 256.432 805.398 255.223 805.3 254.649 805.063 254.179 804.871 253.675 804.605 252.981 804.42 252.209 804.324 251.397 804.235 250.652 804.21 249.834 803.921 249.254 803.472 249.291 802.925 249.268 802.525 249.619 802.446 248.839 802.358 248.024 802.075 247.397 801.874 246.951 801.541 246.638 801.222 246.638 801.091 246.638 800.964 246.69 800.847 246.807 800.456 247.2 800.371 248.114 800.443 248.879 800.516 249.642 800.701 250.383 800.689 251.156 800.677 251.92 800.369 252.764 799.922 252.764 799.917 252.764 799.911 252.764 799.906 252.764 799.669 252.753 799.457 252.508 799.29 252.22 799.052 251.809 798.864 251.285 798.556 251.038 798.32 250.849 798.05 250.853 797.796 250.756 796.932 250.426 796.339 248.737 796.577 247.285 796.773 246.097 797.492 245.265 798.208 245.265 798.366 245.265 798.525 245.307 798.678 245.394 799.695 244.76 800.109 242.576 799.704 240.867 799.299 239.158 798.207 238.096 797.125 238.016 796.809 237.993 796.485 238.039 796.179 237.906 795.31 237.532 794.855 235.907 794.099 235.089 793.898 234.871 793.589 234.825 793.256 234.825 793.023 234.825 792.778 234.847 792.55 234.847 792.301 234.847 792.072 234.821 791.9 234.711 791.634 234.54 791.351 234.452 791.066 234.452 790.988 234.452 790.908 234.459 790.829 234.472 790.511 234.987 789.915 235.132 789.476 235.182 789.026 234.436 788.482 233.741 787.921 233.256 787.546 232.933 787.109 232.591 786.992 231.903 786.842 231.004 786.076 230.545 785.444 230.545 785.303 230.545 785.168 230.568 785.049 230.613 784.857 230.525 784.658 230.483 784.457 230.483Z" stroke="#663300" stroke-width="0.475381" stroke-linejoin="round" stroke-miterlimit="10" stroke-opacity="0.2" fill="#7CDD59" fill-rule="evenodd"/><path d="M810.376 222.483C810.119 222.483 809.865 222.538 809.624 222.692 808.455 223.44 808.798 225.197 808.032 226.242 807.37 227.144 806.147 226.436 805.614 227.675 805.239 228.546 805.659 229.733 806.204 230.361 806.749 230.988 807.43 231.365 807.862 232.173 808.555 233.47 808.357 235.39 807.978 236.961 807.599 238.531 807.063 240.12 807.194 241.781 807.256 242.564 807.465 243.307 807.738 243.977 808.003 244.628 808.364 245.252 808.85 245.431 808.947 245.467 809.044 245.483 809.14 245.483 809.662 245.483 810.171 245 810.567 244.446 811.038 243.79 811.445 242.995 812.017 242.568 812.84 241.951 813.901 242.181 814.618 241.309 815.506 240.229 815.375 238.17 815.619 236.479 816.03 233.64 817.642 231.541 818.271 228.796 818.396 228.259 818.48 227.694 818.47 227.124 818.443 225.287 817.428 223.759 816.292 223.148 815.634 222.795 814.974 222.71 814.312 222.71 813.705 222.71 813.094 222.781 812.48 222.781 812.331 222.781 812.181 222.777 812.03 222.767 811.497 222.729 810.926 222.483 810.376 222.483Z" stroke="#663300" stroke-width="0.475381" stroke-linejoin="round" stroke-miterlimit="10" stroke-opacity="0.2" fill="#7CDD59" fill-rule="evenodd"/><path d="M858.58 227.483C858.274 227.483 857.967 227.56 857.676 227.718 857.373 227.883 857.086 228.128 856.778 228.263 856.531 228.37 856.276 228.404 856.021 228.404 855.805 228.404 855.588 228.38 855.373 228.356L852.851 228.07C852.592 228.04 852.329 228.013 852.067 228.013 851.567 228.013 851.073 228.114 850.634 228.496 849.659 229.345 849.106 231.463 848.011 231.682 847.95 231.694 847.89 231.701 847.83 231.701 847.131 231.701 846.496 230.917 845.831 230.479 845.422 230.212 844.985 230.082 844.547 230.082 843.73 230.082 842.91 230.533 842.276 231.389 841.911 231.079 842.023 230.175 841.895 229.528 841.759 228.853 841.322 228.446 840.894 228.383 840.843 228.376 840.793 228.372 840.743 228.372 840.366 228.372 839.995 228.564 839.635 228.759 838.756 229.234 837.735 230.045 837.653 231.571 837.631 232.001 837.688 232.458 837.58 232.85 837.424 233.407 837.004 233.591 836.742 234.027 836.43 234.545 836.38 235.346 836.368 236.078 836.354 236.81 836.349 237.596 836.094 238.193 835.929 238.579 835.312 238.839 834.809 238.839 834.533 238.839 834.291 238.761 834.178 238.579 833.995 238.284 833.778 238.163 833.546 238.163 833.003 238.163 832.379 238.83 831.934 239.492L830.042 242.307C829.567 243.011 829.057 243.746 828.428 243.921 828.362 243.94 828.293 243.949 828.223 243.949 827.647 243.949 827.043 243.321 827.02 242.38 827.141 242.191 827.296 242.135 827.465 242.135 827.715 242.135 827.996 242.259 828.244 242.259 828.421 242.259 828.581 242.195 828.698 241.976 829.046 241.328 828.531 240.4 828.078 239.965 827.249 239.172 826.393 238.364 825.445 238.151 825.308 238.119 825.17 238.104 825.03 238.104 824.2 238.104 823.35 238.657 822.928 239.821 822.507 240.985 822.584 242.504 822.167 243.672 821.906 244.403 821.475 244.927 821.178 245.619 820.881 246.312 820.755 247.359 821.118 247.958 821.412 248.443 821.911 248.444 822.2 248.932 822.424 249.309 822.5 249.939 822.794 250.146 822.849 250.185 822.906 250.203 822.963 250.203 823.247 250.203 823.519 249.749 823.586 249.258 823.667 248.67 823.555 248.062 823.496 247.468 823.322 245.687 823.862 243.496 824.94 243.241 825.185 243.258 825.266 243.838 825.156 244.202 825.047 244.565 824.832 244.818 824.716 245.178 824.497 245.853 824.751 246.817 825.199 247.011 825.666 247.215 826.446 247.052 826.385 247.845 826.318 248.687 825.378 248.135 825.074 248.818 824.895 249.221 825.053 249.783 825.049 250.284 825.041 251.263 824.389 251.901 823.799 251.97 823.735 251.978 823.67 251.981 823.605 251.981 823.16 251.981 822.715 251.822 822.27 251.822 822.189 251.822 822.11 251.828 822.03 251.84 821.442 251.929 820.801 252.62 820.828 253.597 820.012 254.231 819.164 254.745 818.295 255.133 818.332 256.194 819.54 256.291 819.535 257.355 819.532 257.95 819.114 258.28 818.745 258.28 818.72 258.28 818.696 258.278 818.672 258.276 818.38 258.241 818.085 258.085 817.797 258.085 817.708 258.085 817.617 258.1 817.529 258.14 816.888 258.419 816.662 259.916 817.017 260.846 817.34 261.688 817.971 262.072 818.579 262.072 818.642 262.072 818.704 262.067 818.767 262.06 819.032 262.024 819.317 261.907 819.483 261.562 819.641 261.233 819.654 260.779 819.721 260.373 819.87 259.464 820.339 258.718 820.893 258.508 821.206 258.39 821.591 258.38 821.758 257.926 822.474 258.569 822.978 259.82 823.06 261.163 823.118 261.286 823.193 261.339 823.273 261.339 823.512 261.339 823.791 260.866 823.753 260.403 823.704 259.786 823.374 259.357 823.112 258.909 822.851 258.461 822.632 257.765 822.837 257.243L822.837 257.243C824.061 257.837 825.051 259.6 825.32 261.666 825.747 261.525 825.983 260.568 825.737 259.973 825.786 259.793 825.883 259.716 825.992 259.716 826.18 259.716 826.407 259.941 826.495 260.25 826.635 260.738 826.623 261.339 826.823 261.765 827.025 262.199 827.348 262.295 827.702 262.295 827.98 262.295 828.278 262.235 828.552 262.235 828.92 262.235 829.244 262.342 829.42 262.845 829.747 263.778 829.026 264.862 828.374 264.862 828.363 264.862 828.354 264.862 828.343 264.861 827.684 264.827 827.08 264.202 826.423 264.093 826.349 264.08 826.275 264.076 826.2 264.076 825.554 264.076 824.919 264.505 824.269 264.63 824.187 264.646 824.102 264.653 824.017 264.653 823.351 264.653 822.636 264.167 822.499 263.121 822.459 262.802 822.474 262.452 822.374 262.172 822.253 261.843 822.006 261.724 821.766 261.724 821.719 261.724 821.672 261.729 821.625 261.739 820.681 261.916 819.724 263.223 818.875 263.223 818.643 263.223 818.417 263.124 818.203 262.878 817.567 264.928 816.012 265.701 815.143 267.505 814.199 269.468 814.279 272.499 815.196 274.498 815.996 276.244 817.335 277.185 818.661 277.185 818.853 277.185 819.045 277.165 819.236 277.126 819.437 277.083 819.643 277.022 819.845 277.022 819.989 277.022 820.13 277.053 820.264 277.144 820.58 277.362 820.784 277.872 821.049 278.234 821.204 278.447 821.419 278.596 821.614 278.596 821.753 278.596 821.882 278.52 821.973 278.338L821.973 278.338C821.721 279.372 821.791 280.604 822.155 281.541 822.547 282.552 823.277 283.352 823.263 284.555 823.254 285.176 823.037 285.732 822.935 286.331 822.466 289.075 824.424 291.315 824.732 294.118 824.815 294.874 824.815 295.783 825.199 296.21 825.377 296.405 825.6 296.446 825.812 296.469 825.907 296.479 826.004 296.483 826.102 296.483 827.133 296.483 828.297 295.895 828.504 294.277 828.568 293.776 828.522 293.256 828.531 292.743 828.559 291.213 829.124 289.74 829.95 289.05 830.174 288.861 830.42 288.721 830.598 288.43 830.992 287.789 830.905 286.699 830.703 285.847 830.5 284.995 830.205 284.135 830.277 283.228 830.391 281.77 831.335 281 832.051 280.131 833.128 278.822 833.868 276.775 834.054 274.585L834.054 274.585C833.527 274.859 832.938 275.112 832.386 275.112 831.9 275.112 831.444 274.914 831.088 274.358 830.825 273.947 830.664 273.395 830.509 272.855L829.105 267.996C829.043 267.782 828.98 267.538 829.031 267.317 829.075 267.122 829.163 267.043 829.266 267.043 829.484 267.043 829.781 267.391 829.923 267.758 830.672 269.686 831.347 271.694 831.937 273.77 833.15 273.402 834.295 272.576 835.286 271.356 835.6 270.968 835.912 270.504 836.018 269.88 836.124 269.253 835.929 268.451 835.543 268.341 835.506 268.33 835.47 268.327 835.433 268.327 835.32 268.327 835.205 268.367 835.091 268.387 835.034 268.397 834.977 268.401 834.923 268.401 834.082 268.401 833.352 267.323 832.793 266.241 832.955 265.941 833.168 265.83 833.403 265.83 833.76 265.83 834.163 266.09 834.5 266.346 835.5 267.107 836.554 267.649 837.637 267.962 837.906 268.039 838.184 268.105 838.427 268.314 838.597 268.459 838.744 268.668 838.885 268.884 840.133 270.79 841.057 273.275 841.523 275.979 841.561 275.994 841.599 276.001 841.635 276.001 842.051 276.001 842.338 275.118 842.371 274.376 842.41 273.57 842.353 272.639 842.703 272.075 842.979 271.632 843.432 271.573 843.674 271.078 843.977 270.456 843.819 269.406 844.174 268.864 844.288 268.691 844.42 268.616 844.558 268.616 844.957 268.616 845.402 269.252 845.58 269.94 845.818 270.863 845.905 271.999 846.406 272.563L847.215 272.37C847.219 274.635 847.695 276.892 848.542 278.67 849.004 278.269 848.795 277.105 848.506 276.383 848.216 275.664 847.934 274.588 848.344 274.054L848.344 274.054C848.914 274.062 849.179 275.365 849.733 275.588 849.782 275.608 849.83 275.617 849.879 275.617 850.367 275.617 850.766 274.642 850.675 273.8 850.576 272.874 850.096 272.194 849.602 271.739 849.158 270.933 849.798 269.646 850.447 269.464 850.659 269.404 850.877 269.398 851.095 269.398 851.167 269.398 851.241 269.398 851.313 269.398 851.691 269.398 852.062 269.376 852.395 269.099 853.099 268.512 853.336 266.97 853.176 265.689 853.015 264.41 852.556 263.297 852.182 262.146 851.863 261.163 851.705 259.629 852.326 259.198 852.492 259.083 852.679 259.086 852.859 259.074 855.209 258.911 857.154 254.786 856.683 250.967 856.594 250.246 856.426 249.531 856.116 249.007 855.556 248.061 854.609 247.839 854.191 246.712 853.681 245.332 854.312 243.501 855.13 242.615 855.947 241.73 856.946 241.344 857.71 240.334 857.913 240.326 858.022 239.996 858.059 239.664 858.082 239.456 858.051 239.243 858.05 239.031 858.047 238.45 858.298 237.89 858.635 237.726 858.705 237.692 858.778 237.675 858.851 237.675 859.127 237.675 859.404 237.91 859.552 238.298 859.783 238.904 859.69 239.702 859.522 240.363 859.354 241.023 859.117 241.656 859.072 242.371 859.03 243.083 859.273 243.921 859.704 244.001 859.727 244.006 859.75 244.008 859.773 244.008 860.259 244.008 860.57 243.028 860.603 242.192 860.638 241.316 860.535 240.362 860.818 239.624 861.25 238.498 862.44 238.235 862.47 236.903 862.495 235.825 861.678 235.193 861.531 234.144 861.472 233.719 861.531 233.279 861.554 232.846 861.645 231.231 861.215 229.56 860.451 228.549 859.925 227.853 859.252 227.483 858.58 227.483Z" stroke="#663300" stroke-width="0.475381" stroke-linejoin="round" stroke-miterlimit="10" stroke-opacity="0.2" fill="#7CDD59" fill-rule="evenodd"/><path d="M852.561 279.484C851.626 279.484 849.973 279.991 850.619 281.422 850.797 281.814 851.09 282.044 851.378 282.23 851.589 282.367 851.828 282.484 852.055 282.484 852.201 282.484 852.341 282.435 852.465 282.308 852.68 282.088 853.395 280.582 853.445 280.255 853.54 279.626 853.403 279.661 852.989 279.535 852.884 279.502 852.735 279.484 852.561 279.484Z" stroke="#663300" stroke-width="0.475381" stroke-linejoin="round" stroke-miterlimit="10" stroke-opacity="0.2" fill="#7CDD59" fill-rule="evenodd"/><path d="M847.731 278.484C847.642 278.484 847.555 278.516 847.473 278.586 847.676 279.357 848.028 280.208 848.274 281.025 849.267 284.315 851.29 286.485 853.351 286.485 853.376 286.485 853.401 286.484 853.426 286.484 853.571 286.213 853.357 285.804 853.167 285.656 852.639 285.251 852.073 285.05 851.533 284.706 850.993 284.362 850.459 283.84 850.139 282.978 850.006 282.617 849.914 282.21 849.804 281.825 849.52 280.832 848.499 278.484 847.731 278.484Z" stroke="#663300" stroke-width="0.475381" stroke-linejoin="round" stroke-miterlimit="10" stroke-opacity="0.2" fill="#7CDD59" fill-rule="evenodd"/><path d="M856.489 286.482C855.573 286.482 854.563 287.558 853.992 288.638 853.705 289.179 853.438 289.841 853.019 290.01 852.772 290.111 852.508 290.015 852.261 290.113 851.533 290.398 851.363 292.051 851.529 293.283 851.694 294.515 852.036 295.808 851.765 296.985 851.709 297.222 851.63 297.453 851.632 297.707 851.636 298.013 851.759 298.279 851.903 298.463 852.135 298.758 852.402 298.874 852.681 298.874 853.201 298.874 853.767 298.466 854.242 298.031 854.766 297.551 855.37 297.042 855.939 297.042 856.164 297.042 856.381 297.122 856.588 297.312 857.368 298.032 857.442 299.856 857.923 301.122 858.225 301.915 858.788 302.482 859.324 302.482 859.539 302.482 859.749 302.392 859.938 302.19 860.162 301.949 860.328 301.585 860.49 301.227L861.481 299.039C861.918 298.072 862.372 297.042 862.456 295.835 862.618 293.503 861.395 291.629 860.293 290.201 860.233 289.457 860.171 288.691 859.946 288.043 859.731 287.423 859.408 287.067 859.158 287.067 858.885 287.067 858.698 287.488 858.829 288.447 858.82 288.447 858.811 288.447 858.803 288.447 858.095 288.447 857.518 286.68 856.726 286.507 856.647 286.491 856.569 286.482 856.489 286.482Z" stroke="#663300" stroke-width="0.475381" stroke-linejoin="round" stroke-miterlimit="10" stroke-opacity="0.2" fill="#7CDD59" fill-rule="evenodd"/><path d="M488.924 274.983C487.291 274.983 485.971 276.421 485.971 278.196L485.971 304.768C485.971 306.543 487.291 307.983 488.924 307.983L517.018 307.983C518.651 307.983 519.971 306.543 519.971 304.768L519.971 278.196C519.971 276.421 518.651 274.983 517.018 274.983Z" fill="#32ADB2" fill-rule="evenodd"/><path d="M490.375 276.983C489.59 276.983 488.971 277.744 488.971 278.654L488.971 303.313C488.971 304.222 489.59 304.983 490.375 304.983L514.566 304.983C515.352 304.983 515.971 304.222 515.971 303.313L515.971 278.654C515.971 277.744 515.352 276.983 514.566 276.983Z" fill="#FFF6B7" fill-rule="evenodd"/><path d="M490.375 272.983C489.59 272.983 488.971 273.736 488.971 274.636L488.971 278.713 515.971 278.713 515.971 274.636C515.971 273.736 515.352 272.983 514.566 272.983ZM492.862 286.829C492.275 286.829 491.82 287.386 491.82 288.062 491.82 288.735 492.275 289.266 492.862 289.266L495.701 289.266C496.288 289.266 496.783 288.735 496.783 288.062 496.783 287.386 496.288 286.829 495.701 286.829ZM509.233 292.514C508.646 292.514 508.159 293.08 508.159 293.753 508.159 294.426 508.646 294.983 509.233 294.983L512.08 294.983C512.667 294.983 513.122 294.426 513.122 293.753 513.122 293.08 512.667 292.514 512.08 292.514Z" fill="#8F3956" fill-rule="evenodd"/><path d="M496.126 269.983C495.547 269.983 495.058 270.564 495.058 271.258L495.058 273.761C495.058 274.454 495.547 275.027 496.126 275.027 496.705 275.027 497.154 274.454 497.154 273.761L497.154 271.258C497.154 270.564 496.705 269.983 496.126 269.983ZM503.47 269.983C502.891 269.983 502.404 270.564 502.404 271.258L502.404 273.761C502.404 274.454 502.891 275.027 503.47 275.027 504.053 275.027 504.533 274.454 504.533 273.761L504.533 271.258C504.533 270.564 504.053 269.983 503.47 269.983ZM510.818 269.983C510.238 269.983 509.789 270.564 509.789 271.258L509.789 273.761C509.789 274.454 510.238 275.027 510.818 275.027 511.397 275.027 511.876 274.454 511.876 273.761L511.876 271.258C511.876 270.564 511.397 269.983 510.818 269.983ZM499.25 281.919C498.964 281.919 498.731 282.189 498.731 282.538 498.731 282.881 498.964 283.198 499.25 283.198L507.664 283.198C507.98 283.198 508.204 282.881 508.204 282.538 508.204 282.189 507.98 281.919 507.664 281.919ZM502.058 286.734C501.477 286.734 501.021 287.306 501.021 288.003 501.021 288.695 501.477 289.24 502.058 289.24L504.855 289.24C505.466 289.24 505.922 288.695 505.922 288.003 505.922 287.306 505.466 286.734 504.855 286.734ZM510.139 286.734C509.559 286.734 509.079 287.306 509.079 288.003 509.079 288.695 509.559 289.24 510.139 289.24L512.944 289.24C513.524 289.24 513.972 288.695 513.972 288.003 513.972 287.306 513.524 286.734 512.944 286.734ZM494 292.584C493.42 292.584 492.972 293.166 492.972 293.858 492.972 294.551 493.42 295.124 494 295.124L496.797 295.124C497.378 295.124 497.865 294.551 497.865 293.858 497.865 293.166 497.378 292.584 496.797 292.584ZM502.058 292.584C501.477 292.584 501.021 293.166 501.021 293.858 501.021 294.551 501.477 295.124 502.058 295.124L504.855 295.124C505.466 295.124 505.922 294.551 505.922 293.858 505.922 293.166 505.466 292.584 504.855 292.584ZM494 298.48C493.42 298.48 492.972 299.017 492.972 299.708 492.972 300.402 493.42 300.983 494 300.983L496.797 300.983C497.378 300.983 497.865 300.402 497.865 299.708 497.865 299.017 497.378 298.48 496.797 298.48ZM502.058 298.48C501.477 298.48 501.021 299.017 501.021 299.708 501.021 300.402 501.477 300.983 502.058 300.983L504.855 300.983C505.466 300.983 505.922 300.402 505.922 299.708 505.922 299.017 505.466 298.48 504.855 298.48ZM510.139 298.48C509.559 298.48 509.079 299.017 509.079 299.708 509.079 300.402 509.559 300.983 510.139 300.983L512.944 300.983C513.524 300.983 513.972 300.402 513.972 299.708 513.972 299.017 513.524 298.48 512.944 298.48Z" fill="#F4992B" fill-rule="evenodd"/></g></svg>