<svg width="493" height="342" xmlns="http://www.w3.org/2000/svg" xmlns:xlink="http://www.w3.org/1999/xlink" overflow="hidden"><defs><clipPath id="clip0"><rect x="264" y="57" width="493" height="342"/></clipPath></defs><g clip-path="url(#clip0)" transform="translate(-264 -57)"><path d="M755.645 261.197C755.87 257.188 756.115 252.83 755.924 248.446 755.701 242.67 755.594 236.805 755.048 230.928 754.478 225.48 753.76 220.733 753.175 215.554 752.404 213.687 751.981 211.477 751.666 209.28 750.891 207.501 750.537 206 750.183 204.5L749.74 202.647 749.048 199.378C746.758 191.245 744.852 184.256 742.508 177.256 739.792 169.098 737.468 161.742 734.221 155.054 730.939 147.221 727.265 140.516 722.563 134.545 718.294 128.514 713.116 123.231 707.9 118.637 705.282 116.344 702.217 114.381 698.715 112.401 695.631 110.787 691.995 109.229 688.027 107.579 680.413 104.727 671.838 103.234 662.244 102.484 659.066 102.352 655.879 102.568 653.585 102.473 650.393 102.776 647.225 102.644 642.608 102.801 638.964 103.348 634.356 103.505 630.732 103.704L629.858 103.667 629.311 103.644C627.092 103.989 624.779 104.242 622.465 104.494L622.028 104.476C614.233 104.85 608.305 104.952 602.818 105.16 595.907 105.221 589.591 104.608 583.3 103.56L583.736 103.578C580.032 103.074 576.447 102.575 573.343 101.31 569.777 100.462 566.559 99.2796 563.862 98.3808 561.19 97.2209 558.503 96.3226 555.851 94.8141 554.167 93.6082 552.369 92.4848 550.575 91.2742 548.46 89.7802 546.686 88.2211 544.455 86.9923 540.029 83.9247 535.693 81.2103 531.237 78.4909 522.023 72.9441 512.184 68.6023 502.728 65.2375 492.969 61.5901 483.012 59.3401 472.982 58.5723 467.53 57.9954 462.615 57.7904 457.113 58.2598 452.059 58.3985 446.533 59.3037 440.993 60.4705 434.455 61.6909 427.996 63.6055 421.033 66.5476 414.858 69.2604 408.798 71.8905 403.163 74.5465L400.33 76.263C395.709 78.6038 390.527 81.0085 385.816 82.9961 379.299 85.9647 373.248 88.2459 367.118 90.1742 362.099 91.7995 356.563 92.7044 351.461 93.8893 349.583 94.1605 348.248 94.5416 346.352 95.1693 343.135 95.7341 338.92 96.694 335.694 97.6078 329.711 98.8434 325.03 100.133 320.453 101.69 315.325 103.31 310.586 105.646 305.85 108.078 301.666 110.437 297.9 113.163 293.989 116.319 290.679 118.723 287.329 121.815 284.413 125.013 279.039 131 274.6 137.717 271.423 145.542 268.737 152.42 266.89 159.951 265.982 168.308 265.422 170.469 265.3 172.648 265.158 175.175 264.849 180.674 264.982 186.096 265.488 192.67 266.295 203.632 267.956 214.979 270.904 226.817 272.839 233.458 274.791 239.655 277.173 245.965L277.59 246.331 277.321 251.125C276.683 254.681 276.477 258.349 276.271 262.01L275.986 267.065C275.751 279.032 275.654 288.559 276.583 297.342 277.737 307.969 279.522 317.129 283.202 325.677 284.739 329.673 286.788 334.135 289.312 337.909 292.255 342.051 295.217 345.844 299.593 349.966 306.501 357.592 315.666 364.185 326.703 370.411 336.497 375.546 347.205 380.011 359.79 384.206 365.586 386.282 371.406 387.93 377.688 389.328 383.612 391.06 390.336 392.389 396.608 393.786 409.301 396.063 422.047 397.381 433.845 397.873 445.652 398.366 457.653 397.381 469.145 395.676 480.648 393.623 492.225 390.428 502.986 386.159 514.175 381.908 525.02 376.15 535.506 368.987 538.821 366.496 541.694 364.083 544.11 361.999 545.936 360.678 547.897 358.925 549.856 357.172L550.324 356.834 552.74 354.751C557.92 350.249 564.237 345.009 571.266 340.926 572.724 340.288 574.536 339.227 576.432 338.608 577.782 337.965 580.121 337.276 582.036 336.308 586.152 335.344 590.361 334.471 595.406 334.332 597.724 333.992 600.465 334.106 603.633 334.238 605.927 334.334 608.112 334.425 611.364 334.998 614.512 335.479 617.651 336.308 620.799 336.789 623.486 337.687 626.615 338.516 630.717 339.736 635.678 341.079 640.51 342.766 645.457 344.37L645.437 344.719 647.697 345.599 649.971 346.043C655.33 348.101 661.573 350.205 667.959 351.519 671.524 352.367 675.522 353.32 679.226 353.824 686.416 354.473 693.328 354.412 699.747 353.194 702.517 352.611 705.724 352.046 708.539 350.67 710.882 350.069 713.696 348.701 716.53 346.985 721.26 344.649 725.517 341.157 729.933 336.616 733.347 332.389 736.779 327.815 739.838 322.081 742.864 317.14 745.467 311.737 747.691 305.278 749.326 299.572 751.094 293.443 752.337 286.934 754.227 278.626 755.154 269.921 755.645 261.197Z" fill="#FBDAE0" fill-rule="evenodd" fill-opacity="0.290196"/><path d="M430.506 285 428.71 285.218 427.971 285.327 427.232 285.544 425.962 286.196 424.906 286.849 423.956 287.718 423.112 288.699 422.37 289.677 421.736 290.656 421.208 291.634 420.786 292.721 420.047 294.68 419.73 296.311 419.518 297.836 418.249 297.509 416.982 297.181 415.398 296.964 413.6 296.855 411.911 296.855 411.172 296.964 410.433 297.181 409.691 297.401 409.163 297.836 408.635 298.27 408.212 298.923 407.79 299.575 407.473 300.336 406.84 302.078 406.418 303.926 406.098 305.665 405.993 307.298 405.993 308.494 406.098 309.146 406.312 309.255 406.84 309.473 408.635 309.799 414.764 310.779 423.534 311.867 433.57 313.171 452.271 315.239 458.611 315.892 460.406 316 461.148 316 461.254 315.892 461.359 315.566 461.57 314.476 461.781 312.954 461.993 311.215 461.993 309.255 461.993 307.516 461.781 305.994 461.676 305.339 461.57 304.904 461.254 304.47 461.042 304.143 460.301 303.491 459.35 303.056 458.506 302.621 456.922 302.186 456.286 302.078 456.391 300.988 456.605 298.597 456.71 297.073 456.71 295.55 456.605 294.028 456.391 292.721 456.286 292.504 455.969 292.178 455.23 291.417 453.962 290.656 452.484 289.895 450.687 289.134 448.681 288.37 446.46 287.718 444.137 286.957 441.706 286.413 439.275 285.87 436.952 285.435 434.627 285.109 432.409 285Z" fill="#FF6B6B" fill-rule="evenodd"/><path d="M432.233 303 431.567 303.134 431.184 303.267 430.994 303.4 430.994 303.534 430.994 303.8 431.089 304.067 431.567 304.467 432.233 304.734 432.995 305 433.756 305 434.423 304.867 434.708 304.734 434.898 304.601 434.994 304.334 434.994 304.067 434.994 303.933 434.803 303.8 434.327 303.534 433.661 303.267 432.995 303.134 432.233 303Z" fill="#FFDA73" fill-rule="evenodd"/><path d="M446.641 305 446.209 305.077 446.101 305.154 445.993 305.231 445.993 305.384 446.101 305.461 446.641 305.691 447.289 305.845 448.046 305.922 448.804 306 449.452 305.922 449.885 305.768 449.993 305.615 449.993 305.538 449.777 305.384 449.344 305.231 448.696 305.077 448.046 305Z" fill="#FFDA73" fill-rule="evenodd"/><path d="M460.993 315.894 460.993 315.894 460.782 316 460.782 316 460.993 315.894ZM460.993 315.894 460.993 315.894 460.993 315.894 460.993 315.894 460.993 315.894ZM460.993 315.894 460.993 315.894 460.993 315.894 460.993 315.894 460.993 315.894ZM460.993 315.894 460.993 315.894 460.993 315.894 460.993 315.894 460.993 315.894ZM460.993 315.894 460.993 315.894 460.993 315.894 460.993 315.894 460.993 315.894ZM460.993 315.894 460.993 315.894 460.993 315.894 460.993 315.894 460.993 315.894ZM460.993 315.894 460.993 315.894 460.993 315.894 460.993 315.894 460.993 315.894ZM460.993 315.894 460.993 315.894 460.993 315.894 460.993 315.894 460.993 315.894ZM460.993 315.894 460.993 315.894 460.993 315.894 460.993 315.894 460.993 315.894ZM451.509 315.152 451.509 315.152 451.509 315.152 457.621 315.682 460.782 316 460.782 316 460.782 316 457.621 315.682 451.509 315.152ZM426.222 312.182 426.222 312.182 426.222 312.182 439.921 313.878 439.921 313.878 439.921 313.878 426.222 312.182ZM406.206 309.318 406.206 309.318 407.048 309.53 408.733 309.848 414.527 310.698 414.527 310.698 414.527 310.698 408.733 309.848 407.048 309.53 406.206 309.318ZM406.098 309.212 406.098 309.212 406.206 309.318 406.206 309.318 406.098 309.212ZM406.098 309.212 406.098 309.212 406.098 309.212 406.098 309.212 406.098 309.212ZM406.098 309.212 406.098 309.212 406.098 309.212 406.098 309.212 406.098 309.212ZM406.098 309.212 406.098 309.212 406.098 309.212 406.098 309.212 406.098 309.212ZM406.098 309.212 406.098 309.212 406.098 309.212 406.098 309.212 406.098 309.212ZM406.098 309.212 406.098 309.212 406.098 309.212 406.098 309.212 406.098 309.212ZM406.098 309.212 406.098 309.212 406.098 309.212 406.098 309.212 406.098 309.212ZM406.098 309.212 406.098 309.212 406.098 309.212 406.098 309.212 406.098 309.212ZM406.098 309.106 406.098 309.106 406.098 309.212 406.098 309.212 406.098 309.106ZM406.098 309.106 406.098 309.106 406.098 309.106 406.098 309.106 406.098 309.106ZM406.098 309.106 406.098 309.106 406.098 309.106 406.098 309.106 406.098 309.106ZM406.098 309.106 406.098 309.106 406.098 309.106 406.098 309.106 406.098 309.106ZM406.098 309.106 406.098 309.106 406.098 309.106 406.098 309.106 406.098 309.106ZM406.098 309 406.098 309 406.098 309.106 406.098 309.106 406.098 309ZM406.098 309 406.098 309 406.098 309 406.098 309 406.098 309ZM406.098 309 406.098 309 406.098 309 406.098 309 406.098 309ZM406.098 309 406.098 309 406.098 309 406.098 309 406.098 309ZM406.098 309 406.098 309 406.098 309 406.098 309 406.098 309ZM406.098 309 406.098 309 406.098 309 406.098 309 406.098 309ZM406.098 309 406.098 309 406.098 309 406.098 309 406.098 309ZM405.993 309 405.993 309 405.993 309 405.993 309 405.993 309Z" fill="#FAF9F9" fill-rule="evenodd"/><path d="M419.064 304 418.213 304.211 417.469 304.421 416.726 304.737 416.089 305.157 415.558 305.579 415.133 305.999 414.814 306.422 414.175 307.264 413.856 308.106 413.644 308.842 413.538 308.947 413.432 309.052 412.476 309.052 411.732 308.842 410.458 308.526 408.969 307.895 408.119 307.474 407.376 306.948 406.738 306.317 406.207 305.473 405.993 307.58 405.993 308.421 405.993 309.052 406.099 309.052 406.099 309.157 406.099 309.263 406.207 309.368 407.057 309.579 408.756 309.894 414.6 310.738 414.814 309.789 415.239 308.737 415.77 307.895 416.514 307.053 417.363 306.422 418.213 305.894 419.277 305.579 420.339 305.473 420.976 305.579 421.719 305.683 422.357 305.789 422.888 305.999 423.527 306.317 423.952 306.633 424.483 307.053 425.226 307.895 425.757 308.947 426.182 309.999 426.395 311.159 426.395 312.211 440.21 313.894 440.529 312.947 440.953 312.106 441.591 311.369 442.228 310.633 442.971 310.104 443.821 309.579 444.779 309.368 445.841 309.263 446.372 309.263 447.646 309.579 448.711 309.999 449.667 310.633 450.41 311.369 451.047 312.211 451.472 313.052 451.684 314.104 451.897 315.159 458.061 315.684 461.25 316 461.462 315.895 461.674 315.684 461.781 315.264 461.993 313.789 453.174 313.473 452.855 312.631 452.534 311.684 451.897 310.633 451.472 310.104 450.941 309.579 450.41 309.052 449.773 308.631 449.029 308.211 448.177 308 447.115 307.79 446.053 307.684 444.673 307.684 443.715 307.79 442.865 308 442.122 308.316 441.484 308.631 440.953 309.052 439.998 309.789 439.252 310.633 438.827 311.264 438.508 312 427.884 310.948 427.777 309.999 427.565 308.947 427.032 307.79 426.713 307.158 426.182 306.527 425.651 305.999 425.014 305.473 424.27 304.947 423.421 304.526 422.357 304.211 421.189 304.105 420.02 304Z" fill="#FA8181" fill-rule="evenodd"/><path d="M431.311 287 429.588 287.106 428.677 287.213 427.969 287.319 427.361 287.532 426.853 287.851 426.449 288.276 425.942 288.916 425.538 289.66 425.133 290.511 424.323 292.531 423.614 294.66 422.499 298.49 421.993 300.084 436.879 302 437.487 295.297 437.892 290.511 437.993 288.916 437.993 288.064 437.892 287.957 437.588 287.851 436.475 287.532 434.954 287.213 433.234 287.106 431.311 287Z" fill="#FFFFFF" fill-rule="evenodd"/><path d="M430.55 288 428.859 288.105 428.014 288.21 427.275 288.314 426.748 288.524 426.218 288.736 425.796 289.155 425.373 289.679 425.056 290.308 424.634 291.041 423.895 292.718 423.262 294.606 422.312 297.856 421.993 299.324 436.043 301 436.57 295.235 436.887 291.146 436.993 289.679 436.887 289.05 436.781 288.946 436.465 288.84 435.515 288.524 434.034 288.314 432.345 288.105 430.55 288Z" fill="#82B7F8" fill-rule="evenodd"/><path d="M440.114 289 439.911 289.11 439.81 289.657 439.606 291.189 439.402 293.271 439.197 295.679 439.095 300.277 438.993 302.359 449.382 304 449.586 302.468 449.891 299.073 449.993 296.991 449.993 295.131 449.993 293.38 449.891 292.721 449.687 292.065 449.484 291.627 449.077 291.189 448.568 290.861 448.058 290.423 446.53 289.876 445.003 289.438 443.374 289.219 441.845 289Z" fill="#FFFFFF" fill-rule="evenodd"/><path d="M441.114 290 441.013 290.107 440.809 290.533 440.605 291.918 440.401 293.73 440.299 295.86 440.095 299.91 439.993 301.72 448.972 303 449.176 301.829 449.687 298.844 449.891 297.138 449.993 295.541 449.993 294.049 449.891 293.411 449.789 292.876 449.585 292.45 449.278 292.024 448.769 291.704 448.259 291.385 446.931 290.852 445.503 290.426 444.075 290.213 442.746 290Z" fill="#82B7F8" fill-rule="evenodd"/><path d="M419.351 305 418.171 305.342 417.207 305.801 416.244 306.484 415.494 307.396 414.851 308.308 414.423 309.448 414.1 310.59 413.993 311.73 413.993 312.869 414.316 314.009 414.745 315.037 415.066 315.493 415.387 315.949 415.922 316.405 416.35 316.861 416.993 317.202 417.529 317.431 418.278 317.658 419.03 317.886 419.78 318 421.279 318 421.921 317.886 422.457 317.658 422.994 317.431 423.53 317.088 423.958 316.747 424.708 315.835 425.35 314.806 425.778 313.667 425.993 312.413 425.993 311.159 425.778 310.017 425.457 308.764 424.814 307.738 424.065 306.712 423.637 306.37 423.102 305.915 422.563 305.684 421.921 305.342 421.279 305.228 420.529 305.114 419.886 305Z" fill="#210A06" fill-rule="evenodd"/><path d="M419.478 310 419.021 310.229 418.679 310.343 418.451 310.688 418.219 310.916 418.106 311.259 417.991 311.716 417.991 312.401 418.106 312.744 418.336 313.087 418.564 313.429 418.907 313.658 419.25 313.886 419.707 314 420.506 314 420.849 313.772 421.192 313.658 421.649 313.087 421.991 312.401 421.991 311.716 421.877 311.373 421.763 311.031 421.534 310.688 421.306 310.457 420.849 310.229 420.392 310.115 419.936 310Z" fill="#FFFFFF" fill-rule="evenodd"/><path d="M444.351 309 443.28 309.342 442.207 309.798 441.35 310.484 440.601 311.282 439.959 312.308 439.423 313.334 439.209 314.473 438.993 315.73 439.102 316.869 439.316 318.009 439.851 319.035 440.173 319.493 440.494 319.949 440.922 320.405 441.458 320.747 441.993 321.088 442.636 321.431 443.28 321.658 444.137 321.886 444.886 322 445.636 322 446.279 321.886 446.921 321.772 447.566 321.658 448.102 321.316 448.53 321.088 449.065 320.633 449.814 319.835 450.457 318.806 450.778 317.667 450.993 316.413 450.993 315.159 450.885 313.903 450.457 312.764 449.922 311.624 449.172 310.712 448.637 310.256 448.102 309.912 447.566 309.57 446.921 309.342 446.279 309.114 445.529 309Z" fill="#210A06" fill-rule="evenodd"/><path d="M444.439 314 444.105 314.115 443.772 314.343 443.439 314.571 443.328 314.914 443.103 315.259 442.993 315.602 443.103 316.401 443.217 316.744 443.328 317.087 443.55 317.429 443.883 317.658 444.327 317.886 444.772 318 445.104 318 445.549 317.886 445.882 317.772 446.215 317.543 446.659 317.087 446.881 316.401 446.993 315.602 446.881 315.259 446.771 314.914 446.548 314.686 446.215 314.457 445.882 314.229 445.438 314Z" fill="#FFFFFF" fill-rule="evenodd"/><path d="M418.992 306 418.365 306.116 417.615 306.346 416.991 306.808 416.491 307.27 416.116 307.731 415.991 308.308 415.991 308.423 415.991 308.654 416.116 308.77 416.366 308.885 416.866 309 417.49 308.885 418.24 308.654 418.867 308.193 419.492 307.731 419.866 307.27 419.991 306.808 419.991 306.577 419.991 306.346 419.741 306.231 419.492 306.116 418.992 306Z" fill="#422D29" fill-rule="evenodd"/><path d="M445.023 310 444.297 310.111 443.567 310.333 442.962 310.666 442.477 311.113 442.114 311.557 441.993 312.112 442.114 312.334 442.235 312.557 442.477 312.778 442.841 312.889 443.204 313 443.691 312.889 444.297 312.557 444.903 312.223 445.387 311.668 445.751 311.224 445.993 310.78 445.993 310.555 445.871 310.333 445.751 310.222 445.508 310.111 445.023 310Z" fill="#422D29" fill-rule="evenodd"/><path d="M405.016 299 404.831 299.114 404.552 299.453 404.366 300.132 404.18 301.037 404.087 301.942 403.994 302.963 403.994 303.755 404.18 304.434 404.18 304.661 404.366 304.774 404.644 304.887 405.11 305 405.576 305 406.041 304.887 406.599 304.774 407.064 304.547 407.436 304.208 407.715 303.755 407.901 303.19 407.994 302.624 407.901 302.171 407.807 301.716 407.715 301.263 407.528 300.811 406.971 300.132 406.32 299.566 405.762 299.114 405.202 299Z" fill="#FFFFFF" fill-rule="evenodd"/><path d="M405.533 299 405.456 299.233 405.225 299.698 405.148 300.511 404.994 301.441 404.994 302.373 405.072 303.187 405.148 303.768 405.225 304 405.456 304 405.533 303.768 405.764 303.303 405.917 302.489 405.995 301.56 405.995 300.627 405.917 299.814 405.841 299.233 405.764 299.116 405.686 299Z" fill="#FFDA73" fill-rule="evenodd"/><path d="M592.494 262 578.241 268.179 568.24 272.553 564.742 274.359 562.993 275.388 562.993 275.902 562.993 277.446 563.492 281.819 565.491 294.692 568.49 313.219 581.744 318.113 591.745 321.456 595.493 322.486 597.991 323 598.991 322.743 600.49 322.228 604.244 320.17 609.242 317.34 614.494 313.991 623.745 307.56 627.993 304.725 624.744 268.179 592.494 262Z" fill="#FF6B6B" fill-rule="evenodd"/><path d="M592.494 262 578.241 268.179 568.24 272.553 564.742 274.359 562.993 275.388 562.993 275.902 562.993 277.446 563.492 281.819 565.491 294.692 568.49 313.219 581.744 318.113 591.745 321.456 595.493 322.486 597.991 323 598.991 322.743 600.49 322.228 604.244 320.17 609.242 317.34 614.494 313.991 623.745 307.56 627.993 304.725 624.744 268.179 592.494 262Z" fill="#FF6B6B" fill-rule="evenodd"/><path d="M595.685 262.304 605.993 264.743 595.685 262.304 595.685 262.304 595.685 262.304ZM592.74 262 592.74 262 578.993 269 578.993 269 592.74 262 592.74 262Z" fill="#FFFDFD" fill-rule="evenodd"/><path d="M592.362 262 578.302 268.204 568.261 272.785 564.749 274.677 562.993 275.755 578.302 281.413 587.339 284.647 590.852 285.731 592.613 286 592.863 286 608.925 277.371 619.719 271.438 623.237 269.551 624.993 268.473 624.993 268.204 624.24 267.934 605.915 264.431 595.373 262.269 592.362 262Z" fill="#FF7F7F" fill-rule="evenodd"/><path d="M562.993 276 562.993 276.762 563.241 280.063 563.737 285.148 565.721 297.342 568.45 313.345 580.61 317.921 590.29 320.969 594.264 322.238 596.993 323 592.528 285.655 592.28 285.655 590.538 285.402 587.065 284.38 578.129 281.333 562.993 276Z" fill="#FA8181" fill-rule="evenodd"/><path d="M592.993 286 592.993 286 592.741 286 592.741 286 592.993 286ZM592.993 286 592.993 286 592.993 286 592.993 286ZM562.993 276 562.993 276 562.993 276 578.368 281.524 587.444 284.68 590.972 285.737 592.741 286 592.741 286 592.741 286 590.972 285.737 587.444 284.68 578.368 281.524 562.993 276ZM562.993 276 562.993 276 562.993 276 562.993 276 562.993 276ZM562.993 276 562.993 276 562.993 276 562.993 276Z" fill="#FA9191" fill-rule="evenodd"/><path d="M611.196 285.425 612.375 285.688 613.082 286.214 613.79 286.74 614.026 287.529 614.262 288.581 613.79 289.633 612.847 290.685 611.431 292 609.069 293.052 608.596 285.688 609.776 285.425ZM614.497 297.529 615.912 297.792 617.092 298.318 618.271 299.107 618.979 300.422 619.215 301.737 619.215 302.263 618.979 303.052 618.035 304.63 616.385 305.951 614.026 307.529 610.96 308.581 609.304 298.055 610.012 297.792 612.139 297.529ZM611.667 282 609.304 282.263 607.181 282.789 603.643 284.104 601.993 284.899 605.059 312 608.361 311.211 611.431 310.422 614.026 309.37 616.149 308.581 618.035 307.266 619.686 306.214 620.87 305.156 621.814 304.104 622.521 302.789 622.757 301.737 622.993 300.685 622.993 299.633 622.757 298.844 622.285 298.055 621.814 297.266 621.342 296.74 620.163 295.951 619.215 295.425 617.092 295.162 614.734 295.162 615.912 294.63 616.856 293.841 617.563 293.052 618.271 292 618.507 291.211 618.979 290.422 618.979 288.581 618.507 286.74 617.8 285.162 616.62 283.578 615.205 282.526 614.497 282.263 613.554 282Z" fill="#FFDA73" fill-rule="evenodd"/><path d="M352.903 244.5 349.987 244.708 347.258 245.331 344.706 245.955 342.34 246.579 340.156 247.618 338.151 248.658 336.331 249.905 334.511 251.153 333.055 252.612 331.6 254.067 330.322 255.73 329.048 257.185 328.138 258.848 327.046 260.723 325.59 264.049 324.498 267.583 323.585 270.706 323.039 273.824 322.675 276.527 322.493 280.689 322.493 282.352 322.675 286.306 323.221 290.463 324.135 294.209 325.409 297.951 327.046 301.485 328.866 304.815 331.235 307.726 333.784 310.432 335.057 311.68 336.513 312.719 338.151 313.759 339.792 314.59 341.43 315.422 343.25 316.045 345.07 316.669 346.894 317.085 348.896 317.293 351.079 317.5 353.085 317.5 355.269 317.293 357.634 317.085 360 316.669 362.37 316.045 364.736 315.214 367.833 314.174 370.562 312.719 372.928 311.056 375.298 308.973 377.3 306.894 379.12 304.607 380.576 301.901 382.035 299.406 383.127 296.496 384.037 293.581 384.765 290.671 385.129 287.553 385.311 284.431 385.493 281.312 385.311 278.194 384.947 275.071 384.219 271.953 383.491 268.831 382.581 265.921 381.303 263.01 380.03 260.303 378.392 257.809 376.754 255.314 374.752 253.236 372.565 251.153 370.381 249.281 367.833 247.826 365.282 246.579 362.37 245.54 359.454 244.916 356.361 244.5Z" stroke="#7F7F7F" stroke-linejoin="round" stroke-miterlimit="10" fill="#FFFFFF" fill-rule="evenodd"/><path d="M350.874 317 350.874 317 350.874 317 350.874 317 350.874 317 350.874 317ZM363.264 314.714 363.264 314.714 359.987 315.753 356.887 316.377 353.791 316.793 350.874 317 350.874 317 353.791 316.793 356.887 316.377 359.987 315.753 363.264 314.714ZM363.811 314.714 363.811 314.714 363.264 314.714 363.264 314.714 363.811 314.714ZM363.993 314.506 363.993 314.506 363.993 314.506 363.993 314.506 363.993 314.506ZM353.245 244 353.245 244 351.424 244 351.424 244 348.871 244.208 346.321 244.624 343.95 245.248 341.764 245.871 339.761 246.703 337.94 247.534 336.116 248.573 334.476 249.613 332.837 250.86 331.562 252.112 330.288 253.359 329.009 254.814 327.006 257.724 325.367 260.847 323.91 263.965 323 267.083 322.086 269.998 321.539 272.701 321.175 275.403 320.993 277.486 320.993 280.812 320.993 280.812 320.993 277.486 321.175 275.403 321.539 272.701 322.086 269.998 323 267.083 323.91 263.965 325.367 260.847 327.006 257.724 329.009 254.814 330.288 253.359 331.562 252.112 332.837 250.86 334.476 249.613 336.116 248.573 337.94 247.534 339.761 246.703 341.764 245.871 343.95 245.248 346.321 244.624 348.871 244.208 351.424 244 351.424 244 353.245 244ZM353.245 244 353.245 244 353.245 244 353.245 244 353.245 244 353.245 244Z" fill="#FAF9F9" fill-rule="evenodd"/><path d="M358.136 247.742 359.96 248.158 361.779 248.573 363.599 249.405 365.237 250.236 366.697 251.276 368.153 252.528 369.427 253.775 370.7 255.23 371.611 256.893 372.702 258.556 373.434 260.223 374.162 262.094 374.708 263.965 375.254 266.044 375.618 267.915 375.8 269.998 375.8 271.869 375.8 273.948 375.618 275.819 375.254 277.902 374.89 279.772 374.162 281.644 373.616 283.307 372.702 284.974 371.611 286.637 370.519 288.092 369.245 289.547 367.789 290.587 366.151 291.834 364.509 292.666 362.508 293.501 360.324 294.125 358.318 294.541 356.316 294.749 352.313 294.749 350.125 294.333 348.123 293.709 346.304 292.874 344.666 292.042 343.024 290.795 341.568 289.339 340.294 287.884 339.202 286.221 338.11 284.554 337.201 282.683 336.469 280.604 335.923 278.526 335.559 276.442 335.195 274.364 335.195 272.077 335.195 271.037 335.377 268.331 335.559 266.668 335.923 264.589 336.469 262.51 337.201 260.431 338.11 258.14 339.384 255.854 341.022 253.983 343.024 252.112 345.393 250.444 346.667 249.613 348.123 248.989 349.579 248.573 351.217 248.158 353.041 247.95 354.861 247.742ZM351.403 244 348.851 244.208 346.304 244.624 343.934 245.248 341.75 245.871 339.748 246.703 337.929 247.534 336.105 248.573 334.467 249.613 332.829 250.86 331.555 252.112 330.281 253.359 329.004 254.814 327.002 257.724 325.364 260.847 323.909 263.965 322.998 267.083 322.085 269.998 321.539 272.701 321.175 275.403 320.993 277.486 320.993 280.812 320.993 281.852 321.175 285.182 321.539 288.508 322.085 291.834 322.998 294.957 324.09 298.075 325.546 300.985 327.002 303.692 328.822 306.187 330.827 308.681 333.193 310.764 335.559 312.427 338.292 314.09 341.022 315.337 344.116 316.169 347.396 316.793 350.853 317 353.769 316.793 356.862 316.377 359.96 315.753 363.236 314.714 363.782 314.714 363.963 314.506 366.879 313.467 369.427 311.804 371.792 310.14 373.98 308.265 375.982 306.187 377.802 303.9 379.257 301.401 380.535 298.699 381.627 295.996 382.537 293.081 383.083 290.171 383.629 287.261 383.811 284.138 383.993 281.228 383.811 278.109 383.447 274.987 382.901 272.077 382.173 268.959 381.263 266.044 380.168 263.341 378.894 260.639 377.438 258.14 375.8 255.646 373.98 253.359 371.974 251.276 369.791 249.405 367.425 247.95 364.873 246.495 362.325 245.455 359.414 244.624 356.316 244.208 353.223 244Z" fill="#FAF9F9" fill-rule="evenodd"/><path d="M368.761 255 365.993 256.412 369.684 256.647 372.821 257.353 375.778 258.059 377.993 259 377.07 257.353 374.117 256.177 371.345 255.707 368.761 255Z" fill="#210A06" fill-rule="evenodd"/><path d="M366.483 273 365.744 273.413 364.456 274.444 360.962 277.954 357.648 281.461 356.361 282.905 355.993 283.73 355.993 284.555 356.544 286.621 358.016 291.778 360.41 299 371.449 299 373.104 298.794 374.211 298.794 374.579 298.382 374.947 297.969 375.683 296.113 376.602 293.638 377.338 290.952 378.073 288.065 378.625 285.178 378.993 283.11 378.993 282.286 378.809 281.667 378.625 281.048 378.073 280.636 376.786 279.192 374.763 277.748 372.736 276.506 368.69 274.032 367.219 273.207 366.483 273Z" fill="#210A06" fill-rule="evenodd"/><path d="M343.027 264 340.806 264.21 336.361 264.839 331.919 265.677 330.438 266.096 329.694 266.306 329.324 267.353 328.769 269.453 327.473 275.531 325.993 284.128 330.438 287.276 333.585 289.162 334.88 289.791 335.621 290 336.361 289.581 337.656 288.533 341.177 285.599 344.508 282.661 345.623 281.613 345.993 280.775 345.623 277.841 344.879 272.178 343.953 266.724 343.398 264.839 343.213 264.21 343.027 264Z" fill="#210A06" fill-rule="evenodd"/><path d="M357.015 244 355.392 244.867 352.325 246.818 349.256 248.769 348.354 249.636 347.993 250.07 348.895 254.409 349.616 258.094 357.195 260.045 365.135 262 366.402 261.35 368.747 259.611 370.911 257.661 371.632 257.01 371.993 256.577 371.813 255.926 371.271 254.843 369.648 251.808 367.304 247.685 361.528 245.301 358.638 244.434 357.015 244Z" fill="#210A06" fill-rule="evenodd"/><path d="M336.549 298 335.271 300.63 334.358 302.859 333.993 304.275 333.993 304.882 334.176 305.691 335.088 308.118 336.184 311.157 336.914 311.562 338.196 312.168 341.3 313.382 345.868 315 346.964 315 349.52 314.394 351.897 313.585 352.628 313.18 352.81 312.978 352.993 312.775 352.81 308.523 352.81 305.894 352.628 304.477 351.897 303.871 350.067 303.061 344.59 300.832 336.549 298Z" fill="#210A06" fill-rule="evenodd"/><path d="M338.277 247 336.384 248.289 339.308 248.289 342.915 248.718 346.699 249.362 350.134 250.007 349.619 256.884 335.353 271.497 330.539 266.553 329.852 254.736 328.993 256.025 329.68 268.92 335.353 273 350.478 257.528 350.993 249.148 350.65 249.148 345.496 247.859 341.713 247.215 339.823 247Z" fill="#210A06" fill-rule="evenodd"/><path d="M364.435 260 366.283 275.583 360.931 284.603 344.327 280.3 333.993 286.656 333.993 286.861 333.993 288.705 334.177 290.55 334.361 293.009 334.915 295.677 336.021 298.546 336.574 299.98 337.5 301.623 338.422 303.058 339.344 304.492 345.987 309 346.171 309 354.104 303.878 358.53 301.005 360.747 299.365 367.389 293.009 379.195 282.144 379.195 281.939 380.858 279.685 383.993 274.968 383.624 273.328 380.858 277.841 378.457 281.324 368.679 290.345 360.009 298.546 358.345 299.775 354.657 302.238 345.987 307.771 340.082 303.673 338.422 301.21 337.131 298.546 336.205 296.086 335.652 293.627 335.283 291.369 335.099 289.73 334.915 287.271 344.511 281.529 361.299 285.837 367.389 275.788 365.541 260Z" fill="#210A06" fill-rule="evenodd"/><path d="M373.106 296 371.991 296.414 372.657 298.482 373.55 301.585 374.882 308 375.991 306.966 374.438 300.757 373.771 298.068 373.106 296Z" fill="#210A06" fill-rule="evenodd"/><path d="M326.67 283 326.026 283.452 324.737 284.58 323.286 286.164 322.638 287.067 321.993 288.195 322.315 290 322.638 288.872 323.286 287.744 324.092 286.841 324.897 285.938 326.348 284.58 326.993 284.129 326.67 283Z" fill="#210A06" fill-rule="evenodd"/><path d="M335.831 304 332.414 304.545 328.994 305.091 329.644 306 333.716 305.273 335.994 304.909 335.831 304Z" fill="#210A06" fill-rule="evenodd"/><path d="M351.995 312 350.992 312.385 351.995 313.923 353.195 315.269 354.793 317 355.992 316.808 354.394 315.077 352.995 313.539 351.995 312Z" fill="#210A06" fill-rule="evenodd"/><path d="M1.51334 0.0187226 1.17829 0.142339 0.898632 0.330983 0.677126 0.578276 0.452795 0.890536 0.283927 1.2028 0.117746 1.5769 0.0623524 1.95099 0.00427165 2.44877 0.117746 3.01145 0.339252 3.57106 0.618976 4.25742 1.12289 5.07059 1.7376 5.94246 2.51848 6.87611 3.46824 7.99847 4.69765 9.18561 6.09324 10.4934 7.71309 11.928 8.88435 13.1122 10.0584 14.423 11.1743 15.7958 12.293 17.2273 14.3587 20.0345 16.2 22.6532 17.8199 24.836 18.49 25.7078 19.1601 26.3942 19.7194 26.8301 19.9437 26.9569 20.1652 27.0187 20.3895 27.0187 20.5584 26.9569 20.7245 26.7683 20.8353 26.5209 20.9489 26.2087 21.0043 25.8346 21.0043 25.4605 20.9489 25.0215 20.7245 24.0259 20.3342 22.9036 19.8302 21.6545 19.2182 20.3468 18.49 18.9741 17.6538 17.5395 16.8147 16.0431 15.9231 14.5467 14.0236 11.6776 12.1794 9.05886 10.5596 6.81433 9.83417 5.88062 9.10868 4.94384 8.3278 4.13381 7.59955 3.38561 6.87412 2.69919 6.14863 2.13964 5.42314 1.5769 4.75304 1.14102 4.08294 0.76692 3.52363 0.4546 2.90893 0.204177 2.4077 0.0805015 1.95917 0.0187226Z" stroke="#F2F2F2" stroke-linejoin="round" stroke-miterlimit="10" fill="#FFFFFF" fill-rule="evenodd" transform="matrix(-1 1.22465e-16 1.22465e-16 1 326.5 236.5)"/><path d="M0.895594 0.0224998 0.697757 0.0978149 0.532653 0.212564 0.401862 0.363135 0.269421 0.553199 0.169643 0.743263 0.0715842 0.970985 0.0388522 1.19871 0.00453848 1.50168 0.0715842 1.84415 0.202375 2.18479 0.367479 2.60258 0.665094 3.09751 1.02803 3.62815 1.4891 4.19651 2.04988 4.87962 2.77576 5.60227 3.59984 6.39829 4.55629 7.27146 5.24786 7.99223 5.94108 8.79014 6.59998 9.62571 7.26047 10.497 8.48015 12.2057 9.56746 13.7997 10.5238 15.1282 10.9195 15.6589 11.3152 16.0768 11.6455 16.3421 11.7779 16.4192 11.9087 16.4568 12.0411 16.4568 12.1409 16.4192 12.2389 16.3044 12.3044 16.1539 12.3713 15.9638 12.4041 15.7361 12.4041 15.5084 12.3713 15.2411 12.2389 14.6352 12.0084 13.9521 11.7108 13.1918 11.3495 12.3958 10.9195 11.5602 10.4257 10.6871 9.9304 9.77622 9.40387 8.8654 8.28238 7.11906 7.19349 5.52512 6.23704 4.15885 5.80864 3.59055 5.3803 3.0203 4.91923 2.52726 4.48925 2.07188 4.06084 1.65409 3.6325 1.31346 3.20417 0.970985 2.80849 0.705665 2.41282 0.477943 2.08254 0.287879 1.7196 0.135413 1.42371 0.0601574 1.15883 0.0224998Z" fill="#FFFFFF" fill-rule="evenodd" transform="matrix(-0.783165 0.621814 0.621814 0.783165 313.534 270.153)"/><path d="M1.44936 0.0237791 1.13027 0.147476 0.86394 0.336031 0.652951 0.583368 0.439319 0.89562 0.278452 1.20793 0.120227 1.58203 0.0675303 1.95613 0.0121243 2.45387 0.120227 3.01659 0.331217 3.57617 0.597545 4.26253 1.0775 5.07564 1.66299 5.94754 2.40664 6.88123 3.31115 8.00354 4.48206 9.19075 5.81119 10.4985 7.35389 11.9331 8.46939 13.1172 9.58754 14.4281 10.6503 15.8009 11.7157 17.2323 13.683 20.0396 15.4367 22.6583 16.9794 24.8411 17.6176 25.7129 18.2558 26.3993 18.7885 26.8352 19.0021 26.962 19.2131 27.0238 19.4267 27.0238 19.5876 26.962 19.7458 26.7734 19.8513 26.526 19.9594 26.2138 20.0121 25.8397 20.0121 25.4656 19.9594 25.0266 19.7458 24.031 19.3739 22.9087 18.894 21.6597 18.3111 20.3519 17.6176 18.9792 16.8212 17.5446 16.0221 16.0482 15.173 14.5518 13.3639 11.6827 11.6076 9.06399 10.0649 6.81938 9.37391 5.88569 8.68302 4.94888 7.93938 4.13889 7.24579 3.39069 6.55484 2.70428 5.86389 2.14469 5.17301 1.58203 4.53482 1.14608 3.89664 0.771981 3.36391 0.459729 2.77849 0.209267 2.30118 0.0856278 1.87391 0.0237791Z" fill="#FFFFFF" fill-rule="evenodd" transform="matrix(1 0 0 -1 382 317)"/><path d="M0.903914 0.0216709 0.706078 0.0969268 0.540905 0.211735 0.410114 0.362306 0.277673 0.55237 0.177963 0.742434 0.0799048 0.970156 0.0471727 1.19782 0.012859 1.5008 0.0799048 1.84333 0.210696 2.18396 0.3758 2.60169 0.673346 3.09662 1.03636 3.62732 1.49736 4.19568 2.0582 4.87879 2.78408 5.60139 3.60809 6.39746 4.56454 7.27058 5.25618 7.99134 5.9494 8.78925 6.6083 9.62488 7.26879 10.4962 8.48847 12.2049 9.57578 13.7988 10.5322 15.1274 10.9278 15.6581 11.3235 16.0759 11.6538 16.3413 11.7862 16.4184 11.917 16.456 12.0495 16.456 12.1491 16.4184 12.2472 16.3036 12.3127 16.153 12.3797 15.963 12.4124 15.7352 12.4124 15.5076 12.3797 15.2403 12.2472 14.6343 12.0167 13.9512 11.7191 13.191 11.3578 12.3949 10.9278 11.5594 10.434 10.6862 9.93866 9.7754 9.41219 8.86457 8.29071 7.11823 7.20175 5.52423 6.24529 4.15802 5.81696 3.58967 5.38862 3.01947 4.92755 2.52643 4.49757 2.07105 4.06916 1.65326 3.64082 1.31263 3.21249 0.970156 2.81682 0.704777 2.42114 0.477114 2.09086 0.286991 1.72792 0.134584 1.43196 0.0593284 1.16715 0.0216709Z" fill="#FFFFFF" fill-rule="evenodd" transform="matrix(0.783165 -0.621814 -0.621814 -0.783165 393.132 282.68)"/><path d="M8.94752 0.0164761C8.01356 0.0164761 7.24235 1.21798 6.82263 2.63003L0.0439706 44.9039C0.0439706 46.5616 0.705088 48.4911 1.6967 49.3242L12.2738 54.0165C17.2319 23.0741 15.086 36.0633 20.044 5.11214L9.4669 0.139211C9.28851 0.0515178 9.11534 0.0164761 8.94752 0.0164761Z" stroke="#FDDC9A" stroke-linejoin="round" stroke-miterlimit="10" fill="#E94864" fill-rule="evenodd" transform="matrix(-1 1.22465e-16 1.22465e-16 1 710.5 213.5)"/><path d="M23.2464 30.3309C25.7796 30.3309 27.8134 33.6368 27.8134 37.7648 27.8134 41.9016 25.7796 44.9363 23.2464 44.9363 20.8797 44.9363 18.8511 41.9016 18.8511 37.7648 18.8511 33.9079 20.708 30.3309 23.2464 30.3309ZM27.3036 50.4462 32.5469 66.6962 13.946 66.6962 19.0175 50.4462C20.3699 51.5482 21.894 52.0992 23.2464 52.0992 24.7652 52.0992 26.1176 51.5482 27.3036 50.4462ZM10.9031 0.0179273C7.35036 21.5151 8.70276 13.5214 5.15541 35.0099L14.2841 39.1466C14.2841 41.3506 14.6222 43.8344 15.4701 45.4874L0.083893 92.05C-0.087868 93.4229 0.250284 95.9071 1.26453 96.458 1.67242 96.8341 2.08031 97.0179 2.46135 97.0179 3.20195 97.0179 3.86738 96.3446 4.30748 95.076L11.4129 74.1386 34.7419 74.1386 42.0137 95.076C42.3464 96.3446 43.0441 97.0179 43.7739 97.0179 44.1496 97.0179 44.5414 96.8341 44.8902 96.458 45.9045 95.6269 46.4089 93.4229 45.7328 91.7703L30.6846 46.0384 35.2517 47.9624C38.1228 30.051 37.1085 36.9427 40.8276 13.2503L10.9031 0.0179273Z" stroke="#FDDC9A" stroke-linejoin="round" stroke-miterlimit="10" fill="#E94864" fill-rule="evenodd" transform="matrix(-1 1.22465e-16 1.22465e-16 1 698.5 227.5)"/><path d="M3.45386 0.0197725C1.40591 12.6681 2.26191 8.26871 0.0405949 20.9258L8.74723 24.7753C9.02355 24.9412 9.28903 25.0198 9.5382 25.0198 10.508 25.0198 11.2395 23.8326 11.6512 22.2963L14.0406 8.26871C13.8672 6.34832 13.3579 4.14856 12.1606 3.86923L3.45386 0.0197725Z" stroke="#FDDC9A" stroke-linejoin="round" stroke-miterlimit="10" fill="#E94864" fill-rule="evenodd" transform="matrix(-1 1.22465e-16 1.22465e-16 1 658.5 249.5)"/><path d="M584.806 248C583.819 248 582.993 248.66 582.993 249.442L582.993 253 590.133 253 590.133 249.442C590.133 248.66 589.357 248 588.37 248ZM602.655 248C601.668 248 600.852 248.66 600.852 249.442L600.852 253 607.993 253 607.993 249.442C607.993 248.66 607.215 248 606.229 248Z" fill="#FCC557" fill-rule="evenodd"/><path d="M582.993 249 582.993 252 590.133 252 590.133 249ZM600.852 249 600.852 252 607.993 252 607.993 249Z" fill="#8F3956" fill-rule="evenodd"/><path d="M584.602 251C581.564 251 578.988 252.863 578.418 255.428L575.095 270.609C574.398 273.949 577.345 277 581.276 277 583.164 277 584.925 276.301 586.115 275.07L587.915 273.238C589.105 272.016 590.862 271.308 592.749 271.308L598.236 271.308C600.085 271.308 601.842 272.016 603.071 273.238L604.871 275.07C606.06 276.301 607.821 277 609.67 277 613.641 277 616.588 273.949 615.89 270.609L612.529 255.428C611.998 252.863 609.383 251 606.345 251Z" fill="#F4992B" fill-rule="evenodd"/><path d="M592.749 262C590.862 262 589.105 262.709 587.915 263.951L586.115 265.798C584.925 267.031 583.164 267.749 581.276 267.749 579.194 267.749 577.345 266.862 576.204 265.51L575.095 270.549C574.398 273.92 577.345 277 581.276 277 583.164 277 584.925 276.295 586.115 275.052L587.915 273.203C589.105 271.969 590.862 271.255 592.749 271.255L598.236 271.255C600.085 271.255 601.842 271.969 603.071 273.203L604.871 275.052C606.06 276.295 607.821 277 609.67 277 613.641 277 616.588 273.92 615.89 270.549L614.792 265.51C613.641 266.862 611.792 267.749 609.67 267.749 607.821 267.749 606.06 267.031 604.871 265.798L603.071 263.951C601.842 262.709 600.085 262 598.236 262Z" fill="#FCC557" fill-rule="evenodd"/><path d="M594.229 254C593.537 254 592.993 254.458 592.993 255.004 592.993 255.549 593.537 256 594.229 256L596.767 256C597.458 256 597.993 255.549 597.993 255.004 597.993 254.458 597.458 254 596.767 254Z" fill="#FCC557" fill-rule="evenodd"/><path d="M586.971 257C585.863 257 584.991 257.718 584.991 258.584L584.991 266.45C584.991 267.314 585.863 268 586.971 268 588.075 268 588.991 267.314 588.991 266.45L588.991 258.584C588.991 257.718 588.075 257 586.971 257Z" fill="#BDDFD1" fill-rule="evenodd"/><path d="M597.991 262 597.991 263.986C597.991 265.086 598.907 266 600.011 266 601.119 266 601.991 265.086 601.991 263.986L601.991 262Z" fill="#8F3956" fill-rule="evenodd"/><path d="M606.993 262 606.993 263.986C606.993 265.086 607.863 266 608.963 266 610.067 266 610.993 265.086 610.993 263.986L610.993 262Z" fill="#8F3956" fill-rule="evenodd"/><path d="M602.993 266 602.993 267.485C602.993 268.313 603.646 269 604.472 269 605.3 269 605.993 268.313 605.993 267.485L605.993 266Z" fill="#8F3956" fill-rule="evenodd"/><path d="M602.993 259 602.993 260.521C602.993 261.346 603.646 262 604.472 262 605.3 262 605.993 261.346 605.993 260.521L605.993 259Z" fill="#8F3956" fill-rule="evenodd"/><path d="M582.731 261C581.785 261 580.993 261.685 580.993 262.513 580.993 263.337 581.785 264 582.731 264L591.267 264C592.21 264 592.993 263.337 592.993 262.513 592.993 261.685 592.21 261 591.267 261Z" fill="#32ADB2" fill-rule="evenodd"/><path d="M604.472 257C603.646 257 602.993 257.678 602.993 258.496 602.993 259.312 603.646 260 604.472 260 605.3 260 605.993 259.312 605.993 258.496 605.993 257.678 605.3 257 604.472 257Z" fill="#FFEA55" fill-rule="evenodd"/><path d="M604.472 265C603.646 265 602.993 265.652 602.993 266.521 602.993 267.345 603.646 268 604.472 268 605.3 268 605.993 267.345 605.993 266.521 605.993 265.652 605.3 265 604.472 265Z" fill="#32ADB2" fill-rule="evenodd"/><path d="M600.011 261C598.907 261 597.991 261.685 597.991 262.513 597.991 263.337 598.907 264 600.011 264 601.119 264 601.991 263.337 601.991 262.513 601.991 261.685 601.119 261 600.011 261Z" fill="#85C7AA" fill-rule="evenodd"/><path d="M608.963 261C607.863 261 606.993 261.685 606.993 262.513 606.993 263.337 607.863 264 608.963 264 610.067 264 610.993 263.337 610.993 262.513 610.993 261.685 610.067 261 608.963 261Z" fill="#083B4F" fill-rule="evenodd"/></g></svg>