<svg width="531" height="380" xmlns="http://www.w3.org/2000/svg" xmlns:xlink="http://www.w3.org/1999/xlink" overflow="hidden"><defs><clipPath id="clip0"><rect x="328" y="113" width="531" height="380"/></clipPath></defs><g clip-path="url(#clip0)" transform="translate(-328 -113)"><path d="M521.751 167.861C522.973 168.444 524.104 169.026 525.325 169.585 526.457 170.914 527.301 171.472 528.04 172.637 528.417 172.637 528.417 173.221 528.417 173.942 528.04 173.942 528.04 174.525 527.678 174.525 527.678 174.525 527.678 173.942 527.301 173.942 526.924 173.221 526.08 172.637 525.325 172.055L525.702 172.055C524.948 171.472 524.104 170.914 523.35 170.331 522.973 169.585 522.219 169.585 521.374 169.026 521.374 169.026 520.997 168.444 521.374 168.444L521.374 167.861ZM654.514 113.991C648.587 113.991 642.765 115.156 636.099 117.043 629.795 119.513 623.219 122.426 616.553 127.365 610.627 130.977 605.182 135.777 600.114 141.881 598.516 143.606 597.385 144.911 595.786 146.658 594.564 149.128 593.056 151.458 591.473 153.345 589.875 156.398 588.366 158.704 586.767 161.756 585.636 164.226 584.038 166.697 582.439 169.026 579.724 173.221 576.618 178.743 572.681 182.96 570.706 185.429 569.198 186.572 567.222 187.736 566.377 188.459 565.623 189.041 564.507 189.041L562.909 189.041C562.154 189.041 561.687 188.459 561.31 188.459 560.556 187.736 560.179 187.736 559.802 186.572 558.957 185.989 558.58 185.429 557.826 184.102 556.982 182.377 556.227 180.49 555.488 177.578 555.112 176.273 554.629 175.108 554.629 173.221 554.267 172.055 554.267 170.914 553.89 169.585 553.89 167.279 553.513 164.809 553.89 161.756L553.89 157.539 553.89 153.927C553.89 151.458 553.89 149.128 553.513 146.658 553.135 144.911 552.759 142.464 551.537 139.994 550.783 138.247 549.562 136.359 548.053 134.612 546.093 132.142 543.363 130.394 540.543 128.507 535.852 125.478 530.393 123.731 523.727 123.731L523.35 123.731C520.243 123.731 517.061 124.313 514.708 124.896 511.601 125.478 508.509 126.061 505.78 126.783 502.959 127.365 499.868 128.507 496.761 129.672 493.564 130.394 490.472 131.56 487.365 132.142 482.66 134.03 477.593 135.777 472.42 137.664 470.549 138.247 468.574 138.829 466.221 139.411 457.957 142.464 451.758 144.188 445.454 145.493 441.141 146.658 436.812 147.241 432.499 147.241L430.991 147.241C429.392 147.241 427.794 147.241 426.3 146.658 424.325 146.658 421.972 146.658 419.996 146.076 415.683 145.493 411.822 144.188 407.509 143.023 404.312 141.881 400.828 141.299 397.736 140.576 394.162 139.411 390.693 138.829 387.496 138.829 386.365 138.247 384.766 138.247 383.635 138.247 380.815 138.247 378.477 138.829 376.124 139.411 370.68 139.994 365.22 143.023 360.153 147.241 358.177 149.128 356.202 151.458 353.864 153.927 351.888 156.398 349.913 159.426 347.56 163.061 344.468 168.444 341.361 175.69 338.541 183.542 336.188 190.789 333.851 198.618 332.343 207.192 330.744 215.021 329.99 222.873 329.145 231.285 328.768 239.859 329.145 248.27 329.99 257.404 331.498 275.555 335.434 294.288 341.738 314.746 344.83 323.903 347.937 333.619 352.265 343.778 355.824 352.353 359.685 361.347 363.999 370.48 367.95 378.332 371.901 386.743 376.592 394.596 378.477 398.207 380.452 401.26 382.79 405.477 385.143 409.834 387.496 413.446 389.833 417.081 392.563 421.298 396.137 425.516 399.606 429.709 406.287 439.449 414.175 447.86 421.972 455.107 432.966 465.428 445.092 473.84 457.957 479.945 464.246 482.974 470.927 485.304 477.97 487.191 480.699 487.774 483.791 488.356 487.365 488.939 491.211 489.661 495.162 490.244 498.737 490.826 508.887 491.409 519.022 491.991 530.77 491.991 536.697 491.991 542.896 491.991 549.938 491.409 564.869 491.409 579.724 490.244 594.188 488.939L601.231 488.356C617.685 487.191 635.345 486.026 652.538 486.026L670.198 486.026C672.084 486.026 674.421 486.609 676.397 486.609L699.516 486.609C717.554 486.026 732.018 484.138 746.119 481.669 762.18 478.058 775.89 472.675 788.769 465.428 794.213 461.794 799.763 457.577 805.208 453.382 810.29 448.443 814.981 443.643 820.048 437.562 829.444 426.075 837.724 412.724 844.013 397.625 847.119 390.379 849.834 382.55 851.81 373.533 854.162 364.981 855.761 355.964 856.892 346.248 858.476 329.984 858.476 312.998 856.138 295.454 854.916 287.019 852.941 278.467 850.588 270.616 848.236 262.787 845.144 255.517 841.66 248.853 839.684 245.8 837.724 243.471 835.371 240.441 833.018 237.971 830.665 235.642 827.574 233.754 821.647 229.537 814.981 227.068 809.536 225.925 805.962 224.76 802.116 224.038 798.165 223.456 797.034 222.873 795.435 222.873 793.837 222.291 791.499 222.291 789.146 221.708 786.416 221.126 781.726 219.821 777.775 219.239 774.306 218.074 770.732 216.769 767.248 215.021 763.311 212.551 759.45 210.245 755.892 207.192 752.408 204.139 749.21 201.087 745.742 197.475 742.167 193.841 735.124 185.429 728.081 175.69 721.4 166.697 719.907 164.226 717.932 161.174 715.956 158.704 708.158 147.823 699.14 136.359 689.367 127.948 684.661 123.731 679.594 120.678 674.421 118.208 668.977 115.878 662.688 114.574 656.474 113.991Z" fill="#BDDFD1" fill-rule="evenodd" fill-opacity="0.290196"/><path d="M452.159 434.992 430.309 436.543 410.045 437.323 392.564 438.882 378.26 441.213 367.532 443.543 360.779 446.654 358.792 447.433 357.999 448.992 358.792 450.543 360.779 452.102 367.532 454.433 378.26 456.771 392.564 459.102 410.045 460.653 430.309 462.213 452.159 462.992 499.836 462.992 522.087 462.213 541.95 460.653 559.431 459.102 573.735 456.771 584.861 454.433 591.614 452.102 593.601 450.543 593.999 448.992 593.601 447.433 591.614 446.654 584.861 443.543 573.735 441.213 559.431 438.882 541.95 437.323 522.087 436.543 499.836 434.992Z" fill="#E6E6E6" fill-rule="evenodd"/><path d="M474.999 172.992 474.999 230.992 497.999 230.992 497.999 172.992Z" fill="#F2E7CE" fill-rule="evenodd"/><path d="M469.999 151.992 469.999 172.992 501.999 172.992 501.999 151.992Z" fill="#B9462C" fill-rule="evenodd"/><path d="M440.999 187.992 368.999 287.102 368.999 445.992 512.999 445.992 512.999 287.102 440.999 187.992Z" fill="#F2E7CE" fill-rule="evenodd"/><path d="M440.999 155.992 359.999 267.795 368.336 292.992 440.999 192.994 513.662 292.992 521.999 267.795 440.999 155.992Z" fill="#666666" fill-rule="evenodd"/><path d="M440.997 143.992 353.999 263.306 363.133 289.992 440.997 183.242 518.862 289.992 527.999 263.306 440.997 143.992Z" fill="#B9462C" fill-rule="evenodd"/><path d="M448.999 302.992 448.999 387.992 495.999 387.992 495.999 302.992Z" fill="#897657" fill-rule="evenodd"/><path d="M452.999 310.992 452.999 379.992 471.999 379.992 471.999 310.992Z" fill="#B4DCED" fill-rule="evenodd"/><path d="M474.999 310.992 474.999 379.992 492.999 379.992 492.999 310.992Z" fill="#B4DCED" fill-rule="evenodd"/><path d="M450.999 341.991 450.999 348.991 493.999 348.991 493.999 341.991Z" fill="#A67C52" fill-rule="evenodd"/><path d="M388.999 302.992 388.999 445.992 434.999 445.992 434.999 302.992Z" fill="#BCB7AB" fill-rule="evenodd"/><path d="M395.999 314.992 395.999 365.992 427.999 365.992 427.999 314.992Z" fill="#897657" fill-rule="evenodd"/><path d="M395.999 389.992 395.999 434.992 427.999 434.992 427.999 389.992Z" fill="#897657" fill-rule="evenodd"/><path d="M424.717 372.992 423.858 374.56 423.428 376.135 422.999 378.492 423.428 380.848 423.858 382.423 424.717 383.211 426.001 383.992 427.286 383.211 428.144 382.423 428.57 380.848 428.999 378.492 428.57 376.135 428.144 374.56 427.286 372.992Z" fill="#A67C52" fill-rule="evenodd"/><path d="M512.999 392.991 512.999 406.991 583.999 406.991 583.999 392.991Z" fill="#C69C6D" fill-rule="evenodd"/><path d="M512.999 421.992 512.999 434.992 583.999 434.992 583.999 421.992Z" fill="#C69C6D" fill-rule="evenodd"/><path d="M527.497 372.992 521.999 384.761 521.999 445.992 532.999 445.992 532.999 384.761 527.497 372.992Z" fill="#897657" fill-rule="evenodd"/><path d="M544.5 372.992 538.999 384.761 538.999 445.992 549.999 445.992 549.999 384.761 544.5 372.992Z" fill="#897657" fill-rule="evenodd"/><path d="M562 372.992 556.999 384.761 556.999 445.992 566.999 445.992 566.999 384.761 562 372.992Z" fill="#897657" fill-rule="evenodd"/><path d="M578.497 372.992 572.999 384.761 572.999 445.992 583.999 445.992 583.999 384.761 578.497 372.992Z" fill="#897657" fill-rule="evenodd"/><path d="M410.999 275.992 410.999 285.992 422.999 285.992 422.999 275.992Z" fill="#E6D7B5" fill-rule="evenodd"/><path d="M445.999 238.992 445.999 248.992 457.999 248.992 457.999 238.992Z" fill="#E6D7B5" fill-rule="evenodd"/><path d="M416.999 262.992 416.999 273.992 428.999 273.992 428.999 262.992Z" fill="#E6D7B5" fill-rule="evenodd"/><path d="M466.999 280.992 466.999 291.992 478.999 291.992 478.999 280.992Z" fill="#E6D7B5" fill-rule="evenodd"/><path d="M472.999 267.991 472.999 278.991 484.999 278.991 484.999 267.991Z" fill="#E6D7B5" fill-rule="evenodd"/><path d="M481.999 188.992 481.999 199.992 491.999 199.992 491.999 188.992Z" fill="#E6D7B5" fill-rule="evenodd"/><path d="M485.999 175.991 485.999 186.991 496.999 186.991 496.999 175.991Z" fill="#E6D7B5" fill-rule="evenodd"/><path d="M448.999 418.992 448.999 428.992 459.999 428.992 459.999 418.992Z" fill="#E6D7B5" fill-rule="evenodd"/><path d="M454.999 405.992 454.999 415.992 466.999 415.992 466.999 405.992Z" fill="#E6D7B5" fill-rule="evenodd"/><path d="M367.999 408.992 367.999 418.992 374.999 418.992 374.999 408.992Z" fill="#E6D7B5" fill-rule="evenodd"/><path d="M367.999 422.992 367.999 432.992 374.999 432.992 374.999 422.992Z" fill="#E6D7B5" fill-rule="evenodd"/><path d="M367.999 434.991 367.999 445.991 374.999 445.991 374.999 434.991Z" fill="#E6D7B5" fill-rule="evenodd"/><path d="M506.999 408.992 506.999 418.992 513.999 418.992 513.999 408.992Z" fill="#E6D7B5" fill-rule="evenodd"/><path d="M506.999 422.992 506.999 432.992 513.999 432.992 513.999 422.992Z" fill="#E6D7B5" fill-rule="evenodd"/><path d="M506.999 434.991 506.999 445.991 513.999 445.991 513.999 434.991Z" fill="#E6D7B5" fill-rule="evenodd"/><path d="M416.999 288.992 416.999 298.992 428.999 298.992 428.999 288.992Z" fill="#E6D7B5" fill-rule="evenodd"/><path d="M388.999 302.992 388.999 310.843 388.999 445.992 393.001 445.992 393.001 310.843 430.597 310.843 430.597 445.992 434.598 445.992 434.598 310.843 434.999 310.843 434.999 302.992Z" fill="#897657" fill-rule="evenodd"/><path d="M454.107 410.992 451.749 411.775 449.788 414.121 448.607 413.337 447.823 414.121 447.035 415.682 444.287 415.682 443.106 417.251 441.929 419.596 441.535 421.948 439.964 421.948 438.787 423.509 438.393 425.078 437.999 427.423 438.393 428.992 470.609 428.992 470.999 427.423 470.999 425.078 470.609 421.948 469.822 418.819 468.644 417.251 466.679 416.466 466.679 414.905 466.286 414.121 465.892 413.337 465.108 412.552 464.321 413.337 463.537 414.905 462.75 414.121 461.967 413.337 461.179 413.337 460.391 411.775 459.214 410.992 458.431 411.775 457.643 413.337 456.072 411.775 454.107 410.992Z" fill="#72B3A5" fill-rule="evenodd"/><path d="M436.999 427.992 436.999 433.992 471.999 433.992 471.999 427.992Z" fill="#A67C52" fill-rule="evenodd"/><path d="M437.999 433.992 440.371 447.992 468.024 447.992 469.999 433.992Z" fill="#C69C6D" fill-rule="evenodd"/><path d="M497.785 408.991 496.214 409.793 495.037 412.19 493.856 410.595 492.285 410.595 490.32 411.396 488.359 412.991 487.572 411.396 486.784 410.595 485.607 411.396 484.823 412.991 484.43 412.991 483.248 413.793 482.465 414.595 481.677 412.991 480.893 412.19 480.5 412.991 479.713 413.793 479.323 414.595 479.323 416.19 477.751 416.991 476.177 418.595 475.393 421.793 474.999 424.991 475.393 427.388 475.787 428.991 507.999 428.991 507.999 427.388 507.605 424.19 506.822 422.587 506.822 420.19 506.428 417.793 505.644 416.19 504.463 414.595 504.073 412.991 503.286 412.19 502.498 411.396 501.715 410.595 500.537 411.396 500.144 412.19 498.962 409.793 497.785 408.991Z" fill="#72B3A5" fill-rule="evenodd"/><path d="M474.999 427.992 474.999 433.992 507.999 433.992 507.999 427.992Z" fill="#A67C52" fill-rule="evenodd"/><path d="M475.999 433.992 477.937 447.992 505.062 447.992 506.999 433.992Z" fill="#C69C6D" fill-rule="evenodd"/></g></svg>