<svg width="469" height="312" xmlns="http://www.w3.org/2000/svg" xmlns:xlink="http://www.w3.org/1999/xlink" overflow="hidden"><defs><clipPath id="clip0"><rect x="342" y="145" width="469" height="312"/></clipPath></defs><g clip-path="url(#clip0)" transform="translate(-342 -145)"><path d="M284.289 0.000545455C279.122 0.000545455 274.028 0.919637 268.203 2.41309 262.707 4.25128 256.875 6.66382 251.133 10.5699 245.957 13.4525 241.199 17.2436 236.762 22.0688 235.367 23.4475 234.301 24.3665 233.316 25.86 231.922 27.8131 230.61 29.6512 229.543 31.1551 227.82 33.5677 226.501 35.4058 225.106 37.3588 224.039 39.3119 222.727 41.6096 221.332 43.1031 218.953 46.9047 216.246 51.2703 212.793 54.602 211.07 56.555 209.676 57.4741 208.035 58.3932 207.296 58.8527 206.641 59.4272 205.984 59.4272L204.261 59.4272C203.523 59.4272 203.195 58.8527 202.859 58.8527 202.203 58.3932 201.875 57.9336 201.465 57.4741 200.808 57.0145 200.48 56.555 199.824 55.5211 199.086 54.1424 198.43 52.6489 197.773 50.2364 197.363 49.3173 197.035 48.3982 197.035 46.9047 196.707 45.9752 196.707 45.0561 196.378 44.0222L196.378 37.8184 196.378 34.4868 196.378 31.6146C196.378 29.6512 196.378 27.8131 196.05 25.86 196.05 24.3665 195.312 22.5284 194.328 20.5753 193.672 19.1967 192.605 17.7032 191.21 16.3245 189.562 14.3716 187.101 12.8677 184.722 11.489 180.62 9.07645 175.855 7.69777 170.031 7.69777L169.703 7.69777C166.987 7.69777 164.198 8.15736 162.148 8.61686 159.44 9.07645 156.733 9.53595 154.265 9.99554 151.886 10.5699 149.179 11.489 146.472 12.4081 143.682 12.8677 140.968 13.912 138.261 14.3716 134.159 15.7502 129.64 17.2436 125.21 18.6223 123.487 19.1967 121.847 19.6562 119.795 20.1158 112.569 22.5284 107.065 23.907 101.651 24.9409 97.8775 25.86 94.0964 26.3195 90.6512 26.3195L89.0098 26.3195C87.9439 26.3195 86.5493 26.3195 84.9087 25.86 83.1781 25.86 81.1276 25.4004 79.733 25.4004 75.9592 24.3665 72.1856 23.907 68.4866 22.9879 65.6974 22.0688 62.6621 21.4944 59.8655 20.5753 56.8301 20.1158 53.7129 19.6562 51.0058 19.6562 50.0213 19.1967 48.6268 19.1967 47.5528 19.1967 45.502 19.1967 43.123 19.6562 41.0721 20.1158 36.3066 20.5753 31.5486 22.9879 27.0367 26.3195 25.396 27.8131 23.6658 29.1916 21.615 31.6146 19.8922 33.5677 18.1695 35.8654 16.4468 38.7375 13.4115 43.1031 10.6149 48.8577 8.23586 55.0615 6.185 60.8058 4.13414 67.02 2.82156 73.7981 1.42699 80.012 0.770701 86.2162 0.353092 92.8797-0.303199 99.6679 0.0249045 106.331 0.770701 113.465 2.08328 127.825 5.52871 142.771 11.025 158.98 13.7396 166.228 16.4468 173.81 20.2203 181.977 23.3377 188.756 26.7086 195.889 30.4821 203.126 33.9277 209.331 37.7087 216.004 41.4002 222.208 43.123 225.08 44.8457 227.492 46.8965 230.835 49.283 234.166 51.0058 237.039 53.0566 239.451 55.4357 243.357 58.5529 246.699 61.5957 250.031 67.4201 257.728 74.2364 264.402 81.1276 270.146 90.6512 278.303 101.323 284.977 112.569 289.802 118.065 292.214 123.897 294.052 130.05 295.557 132.436 296.016 135.143 296.475 138.261 296.935 141.624 297.394 145.405 297.969 148.112 298.428 157.062 298.888 166.25 299.348 176.511 299.348 181.687 299.348 186.773 299.348 192.933 298.888 205.984 298.888 218.953 297.969 231.922 296.935L237.746 296.475C252.117 295.557 267.547 294.512 282.896 294.512L297.915 294.512C299.645 294.512 301.696 294.512 303.419 295.086L313.024 295.086C316.798 295.086 320.161 295.086 323.943 294.512 339.373 294.512 352.014 293.133 364.326 291.181 378.361 288.308 390.674 284.058 401.592 278.303 406.357 275.431 411.197 272.099 415.956 268.652 420.393 264.861 424.495 261.06 428.925 256.234 437.135 247.159 444.362 236.579 449.776 224.62 452.566 218.876 454.951 212.673 456.675 205.424 458.725 198.761 460.038 191.628 461.105 183.931 462.499 170.938 462.499 157.601 460.448 143.69 459.382 137.026 457.659 130.248 455.608 124.034 453.557 117.83 450.842 112.075 447.725 106.791 446.084 104.378 444.362 102.54 442.311 100.127 440.581 98.1746 438.201 96.2107 435.413 94.8324 430.326 91.5006 424.495 89.5479 420.065 88.6283 416.612 87.5944 413.248 87.1349 409.802 86.6755 408.737 86.2162 407.424 86.2162 406.357 85.7567 403.971 85.7567 401.92 85.2973 399.541 84.7228 395.439 83.8032 391.987 83.3438 389.279 82.4249 385.834 81.3911 382.798 80.012 379.346 78.0488 375.9 76.0961 372.865 73.7981 369.747 71.3856 367.033 68.973 364.326 66.1009 360.88 63.2287 354.72 56.555 348.568 48.8577 343.064 41.6096 341.423 39.7714 339.701 37.3588 337.978 35.4058 331.162 26.779 323.286 17.7032 314.747 11.0295 310.645 7.69777 306.126 5.28522 301.696 3.33218 296.93 1.37914 291.435 0.000545455 286.013 0.000545455Z" fill="#FEE8BC" fill-rule="evenodd" fill-opacity="0.290196" transform="matrix(-0.995179 -0.0980716 -0.0980716 0.995179 819.34 173.802)"/><path d="M480.993 279.991 480.993 282.981 486.082 310.334C486.287 311.263 487.177 311.991 488.22 311.991L501.812 311.991C502.856 311.991 503.745 311.263 503.887 310.334L508.993 282.981 508.993 279.991Z" fill="#FFE87D" fill-rule="evenodd"/><path d="M480.992 279.991 480.992 282.981 486.084 310.334C486.289 311.263 487.179 311.991 488.223 311.991L494.992 311.991 494.992 279.991Z" fill="#F4992B" fill-rule="evenodd"/><path d="M494.987 289.992C492.237 289.992 489.993 292.246 489.993 294.997 489.993 297.748 492.237 299.992 494.987 299.992 497.738 299.992 499.993 297.748 499.993 294.997 499.993 292.246 497.738 289.992 494.987 289.992Z" fill="#FCC557" fill-rule="evenodd"/><path d="M494.992 289.992C492.239 289.992 489.992 292.246 489.992 294.997 489.992 297.748 492.239 299.992 494.992 299.992L494.992 289.992Z" fill="#32ADB2" fill-rule="evenodd"/><path d="M504.731 265.991C504.15 265.991 503.57 266.19 503.13 266.59L495.993 273.08 499.146 275.991 506.332 269.457C507.213 268.655 507.213 267.383 506.332 266.59 505.892 266.19 505.311 265.991 504.731 265.991Z" fill="#FCC557" fill-rule="evenodd"/><path d="M504.444 265.992C503.882 265.992 503.321 266.177 502.895 266.552L495.992 272.629 497.541 273.992 505.992 266.598 505.992 266.552C505.566 266.177 505.005 265.992 504.444 265.992Z" fill="#BDDFD1" fill-rule="evenodd"/><path d="M484.34 272.992C483.16 272.992 482.184 273.908 482.184 275.007L482.184 276.98 481.102 276.98C479.922 276.98 478.993 277.904 478.993 279.007L478.993 280.975C478.993 282.079 479.922 282.992 481.102 282.992L508.884 282.992C510.059 282.992 510.993 282.079 510.993 280.975L510.993 279.007C510.993 277.904 510.059 276.98 508.884 276.98L507.798 276.98 507.798 275.007C507.798 273.908 506.868 272.992 505.693 272.992Z" fill="#32ADB2" fill-rule="evenodd"/><path d="M494.993 276.991 494.993 282.991 508.884 282.991C510.06 282.991 510.993 282.08 510.993 280.979L510.993 279.014C510.993 277.913 510.06 276.991 508.884 276.991Z" fill="#BDDFD1" fill-rule="evenodd"/><path d="M484.181 272.992C482.984 272.992 481.992 273.912 481.992 275.014L481.992 276.992 494.992 276.992 494.992 272.992Z" fill="#BDDFD1" fill-rule="evenodd"/><path d="M486.801 265.99C486.346 265.99 485.992 266.355 485.992 266.809L485.992 270.171C485.992 270.633 486.346 270.99 486.801 270.99 487.264 270.99 487.622 270.633 487.622 270.171L487.622 266.809C487.622 266.355 487.264 265.99 486.801 265.99ZM490.122 265.99C489.667 265.99 489.313 266.355 489.313 266.809L489.313 270.171C489.313 270.633 489.667 270.99 490.122 270.99 490.586 270.99 490.992 270.633 490.992 270.171L490.992 266.809C490.992 266.355 490.586 265.99 490.122 265.99Z" fill="#32ADB2" fill-rule="evenodd"/><path d="M619.993 289.991C619.993 291.091 621.002 292.005 622.212 292.005 621.002 292.005 619.993 292.879 619.993 293.978 619.993 294.673 620.395 295.269 620.953 295.631 620.346 296.647 619.993 297.791 619.993 298.982 619.993 299.863 620.346 300.689 620.853 301.328 620.346 301.924 619.993 302.663 619.993 303.489 619.993 305.419 621.765 306.972 623.885 306.972L622.212 306.972C621.002 306.972 619.993 307.896 619.993 309.001 619.993 311.204 621.971 312.991 624.396 312.991L659.602 312.991C662.026 312.991 663.993 311.204 663.993 309.001 663.993 307.896 662.987 306.972 661.773 306.972L660.101 306.972C662.224 306.972 663.993 305.419 663.993 303.489 663.993 302.663 663.639 301.924 663.132 301.328 663.639 300.689 663.993 299.863 663.993 298.982 663.993 297.791 663.639 296.647 663.036 295.631 663.59 295.269 663.993 294.673 663.993 293.978 663.993 292.879 662.987 292.005 661.773 292.005 662.987 292.005 663.993 291.091 663.993 289.991Z" fill="#F4992B" fill-rule="evenodd"/><path d="M623.885 299.991C621.765 299.991 619.993 301.564 619.993 303.497 619.993 305.433 621.765 306.991 623.885 306.991L660.101 306.991C662.224 306.991 663.993 305.433 663.993 303.497 663.993 301.564 662.224 299.991 660.101 299.991Z" fill="#32ADB2" fill-rule="evenodd"/><path d="M628.514 291.991C624.364 291.991 620.993 295.118 620.993 298.982 620.993 301.19 622.881 302.991 625.3 302.991 626.677 302.991 627.92 302.35 628.703 301.377 628.907 301.146 629.249 301.014 629.592 301.014 629.89 301.014 630.233 301.146 630.437 301.377 631.232 302.35 632.463 302.991 633.899 302.991 635.276 302.991 636.519 302.35 637.302 301.377 637.506 301.146 637.849 301.014 638.195 301.014 638.49 301.014 638.832 301.146 639.037 301.377 639.831 302.35 641.062 302.991 642.498 302.991 643.875 302.991 645.122 302.35 645.905 301.377 646.105 301.146 646.448 301.014 646.794 301.014 647.089 301.014 647.435 301.146 647.636 301.377 648.431 302.35 649.662 302.991 651.097 302.991 652.474 302.991 653.721 302.35 654.505 301.377 654.705 301.146 655.047 301.014 655.393 301.014 655.689 301.014 656.034 301.146 656.235 301.377 657.03 302.35 658.261 302.991 659.697 302.991 662.069 302.991 663.993 301.19 663.993 298.982 663.993 295.118 660.586 291.991 656.436 291.991Z" fill="#BDDFD1" fill-rule="evenodd"/><path d="M622.212 291.991C621.002 291.991 619.993 292.863 619.993 293.964 619.993 295.067 621.002 295.991 622.212 295.991L661.773 295.991C662.987 295.991 663.993 295.067 663.993 293.964 663.993 292.863 662.987 291.991 661.773 291.991Z" fill="#8F3956" fill-rule="evenodd"/><path d="M627.993 288.991 638.85 297.708C639.847 298.536 641.135 298.991 642.519 298.991 643.846 298.991 645.139 298.536 646.132 297.708L656.993 288.991Z" fill="#FFEA55" fill-rule="evenodd"/><path d="M635.405 275.992C626.917 275.992 619.993 282.25 619.993 289.975 619.993 291.076 621.002 291.992 622.212 291.992L661.773 291.992C662.987 291.992 663.993 291.076 663.993 289.975 663.993 282.25 657.068 275.992 648.581 275.992Z" fill="#F4992B" fill-rule="evenodd"/><path d="M635.557 275.991C626.985 275.991 619.992 282.247 619.992 289.97 619.992 291.071 621.012 291.986 622.234 291.986L636.681 291.986C635.459 291.986 634.428 291.071 634.428 289.97 634.428 282.247 641.421 275.991 649.992 275.991ZM622.234 306.966C621.012 306.966 619.992 307.892 619.992 308.997 619.992 311.203 621.99 312.991 624.439 312.991L638.875 312.991C636.426 312.991 634.428 311.203 634.428 308.997 634.428 307.892 635.459 306.966 636.681 306.966Z" fill="#F4AB53" fill-rule="evenodd"/><path d="M652.912 279.992C652.466 279.992 652.13 280.346 652.13 280.728 652.13 281.124 652.466 281.423 652.912 281.423L653.984 281.423C654.417 281.423 654.754 281.124 654.754 280.728 654.754 280.346 654.417 279.992 653.984 279.992ZM656.074 282.844C655.633 282.844 655.293 283.157 655.293 283.539 655.293 283.935 655.633 284.234 656.074 284.234L657.139 284.234C657.58 284.234 657.92 283.935 657.92 283.539 657.92 283.157 657.58 282.844 657.139 282.844ZM650.822 284.712C650.38 284.712 649.993 285.012 649.993 285.397 649.993 285.793 650.38 286.133 650.822 286.133L651.84 286.133C652.28 286.133 652.667 285.793 652.667 285.397 652.667 285.012 652.28 284.712 651.84 284.712ZM657.139 286.612C656.706 286.612 656.369 286.911 656.369 287.307 656.369 287.689 656.706 287.992 657.139 287.992L658.211 287.992C658.656 287.992 658.993 287.689 658.993 287.307 658.993 286.911 658.656 286.612 658.211 286.612Z" fill="#FFEE92" fill-rule="evenodd"/><path d="M642.993 267.992 642.993 272.992 651.977 272.992C652.527 272.992 652.993 272.539 652.993 271.991L652.993 269.003C652.993 268.455 652.527 267.992 651.977 267.992Z" fill="#8F3956" fill-rule="evenodd"/><path d="M642.514 266.991C642.237 266.991 641.995 267.321 641.995 267.73L641.995 278.991 642.995 278.991 642.995 267.73C642.995 267.321 642.785 266.991 642.514 266.991Z" fill="#FCC557" fill-rule="evenodd"/><path d="M638.79 277.988C638.336 277.988 637.993 278.424 637.993 278.989 637.993 279.543 638.336 279.988 638.79 279.988L644.195 279.988C644.633 279.988 644.993 279.543 644.993 278.989 644.993 278.424 644.633 277.988 644.195 277.988Z" fill="#F49745" fill-rule="evenodd"/><path d="M489.492 319.491 505.492 319.491 505.492 415.491 489.492 415.491Z" stroke="#B9903E" stroke-width="2.66667" stroke-miterlimit="8" fill="#FCC557" fill-rule="evenodd"/><path d="M645.492 319.491 661.492 319.491 661.492 415.491 645.492 415.491Z" stroke="#B9903E" stroke-width="2.66667" stroke-miterlimit="8" fill="#FCC557" fill-rule="evenodd"/><path d="M486.493 314.492 664.493 314.492 664.493 337.492 486.493 337.492Z" stroke="#B9903E" stroke-width="2.66667" stroke-miterlimit="8" fill="#FCC557" fill-rule="evenodd"/><path d="M548.493 189.991C548.493 173.146 566.401 159.491 588.493 159.491 610.584 159.491 628.493 173.146 628.493 189.991 628.493 206.836 610.584 220.491 588.493 220.491 566.401 220.491 548.493 206.836 548.493 189.991Z" stroke="#FFE87D" stroke-width="2.66667" stroke-linejoin="round" stroke-miterlimit="10" fill="#FFF8EC" fill-rule="evenodd"/><path d="M594.493 181.491C592.746 181.864 591.493 183.453 591.493 185.296L591.493 190.733 592.241 190.733C592.658 190.733 592.994 191.077 592.994 191.507L592.994 197.718C592.994 198.148 593.325 198.492 593.742 198.492 594.157 198.492 594.493 198.148 594.493 197.718L594.493 181.491Z" stroke="#FFE87D" stroke-linejoin="round" stroke-miterlimit="10" fill="#8F3956" fill-rule="evenodd"/><path d="M581.492 186.492 581.492 187.24C581.492 187.656 581.935 187.992 582.489 187.992 583.043 187.992 583.492 188.324 583.492 188.74L583.492 197.744C583.492 198.159 583.934 198.492 584.489 198.492 585.045 198.492 585.491 198.159 585.491 197.744L585.491 188.74C585.491 188.324 585.934 187.992 586.49 187.992 587.044 187.992 587.492 187.656 587.492 187.24L587.492 186.492Z" stroke="#FFE87D" stroke-linejoin="round" stroke-miterlimit="10" fill="#8F3956" fill-rule="evenodd"/><path d="M587.67 180.59C588.125 180.59 588.493 180.927 588.493 181.35L588.493 185.92 588.493 187.444C588.489 188.411 587.832 189.276 586.852 189.601L586.852 198.108C586.852 199.371 585.749 200.391 584.388 200.391 583.028 200.391 581.93 199.371 581.93 198.108L581.93 189.601C580.947 189.276 580.29 188.411 580.29 187.444L580.29 181.35C580.29 180.927 580.653 180.59 581.107 180.59 581.563 180.59 581.93 180.927 581.93 181.35L581.93 185.161 583.57 185.161 583.57 181.35C583.57 180.927 583.933 180.59 584.388 180.59 584.844 180.59 585.211 180.927 585.211 181.35L585.211 185.161 586.852 185.161 586.852 181.35C586.852 180.927 587.216 180.59 587.67 180.59ZM595.873 180.59C596.328 180.59 596.696 180.927 596.696 181.35L596.696 198.108C596.696 199.371 595.593 200.391 594.233 200.391 592.871 200.391 591.774 199.371 591.774 198.108L591.774 192.778 590.951 192.778C590.496 192.778 590.133 192.437 590.133 192.014L590.133 185.92C590.133 182.976 592.702 180.59 595.873 180.59ZM576.951 177.491C575.591 177.491 574.493 178.514 574.493 179.778L574.493 201.208C574.493 202.468 575.591 203.491 576.951 203.491L600.03 203.491C601.39 203.491 602.489 202.468 602.493 201.208L602.493 179.778C602.489 178.514 601.39 177.491 600.03 177.491Z" stroke="#FFE87D" stroke-linejoin="round" stroke-miterlimit="10" fill="#8F3956" fill-rule="evenodd"/></g></svg>