<svg width="494" height="343" xmlns="http://www.w3.org/2000/svg" xmlns:xlink="http://www.w3.org/1999/xlink" overflow="hidden"><defs><clipPath id="clip0"><rect x="262" y="131" width="494" height="343"/></clipPath></defs><g clip-path="url(#clip0)" transform="translate(-262 -131)"><path d="M442.765 181.951C443.9 182.475 444.953 183 446.089 183.502 447.141 184.697 447.927 185.2 448.613 186.247 448.964 186.247 448.964 186.772 448.964 187.422 448.613 187.422 448.613 187.945 448.277 187.945 448.277 187.945 448.277 187.422 447.927 187.422 447.576 186.772 446.79 186.247 446.089 185.724L446.439 185.724C445.738 185.2 444.953 184.697 444.251 184.173 443.9 183.502 443.199 183.502 442.414 183 442.414 183 442.063 182.475 442.414 182.475L442.414 181.951ZM566.241 133.497C560.729 133.497 555.314 134.545 549.115 136.242 543.251 138.464 537.136 141.084 530.936 145.527 525.423 148.775 520.36 153.092 515.647 158.583 514.16 160.134 513.108 161.308 511.621 162.88 510.485 165.101 509.082 167.197 507.61 168.895 506.123 171.64 504.72 173.715 503.234 176.461 502.181 178.682 500.695 180.904 499.207 183 496.683 186.772 493.793 191.739 490.133 195.532 488.295 197.754 486.893 198.781 485.055 199.829 484.27 200.478 483.568 201.002 482.53 201.002L481.043 201.002C480.342 201.002 479.907 200.478 479.557 200.478 478.855 199.829 478.504 199.829 478.154 198.781 477.368 198.257 477.018 197.754 476.316 196.559 475.53 195.008 474.829 193.311 474.142 190.691 473.791 189.517 473.343 188.469 473.343 186.772 473.006 185.724 473.006 184.697 472.655 183.502 472.655 181.428 472.305 179.206 472.655 176.461L472.655 172.667 472.655 169.419C472.655 167.197 472.655 165.101 472.305 162.88 471.954 161.308 471.603 159.107 470.467 156.886 469.766 155.314 468.63 153.616 467.227 152.045 465.403 149.823 462.864 148.251 460.241 146.554 455.88 143.829 450.802 142.257 444.602 142.257L444.251 142.257C441.362 142.257 438.402 142.781 436.214 143.305 433.324 143.829 430.449 144.353 427.91 145.003 425.287 145.527 422.412 146.554 419.522 147.602 416.549 148.251 413.674 149.299 410.784 149.823 406.407 151.521 401.694 153.092 396.884 154.79 395.144 155.314 393.306 155.838 391.118 156.362 383.432 159.107 377.667 160.658 371.804 161.832 367.792 162.88 363.766 163.404 359.755 163.404L358.352 163.404C356.865 163.404 355.379 163.404 353.99 162.88 352.153 162.88 349.964 162.88 348.127 162.356 344.115 161.832 340.524 160.658 336.513 159.61 333.539 158.583 330.299 158.059 327.423 157.41 324.099 156.362 320.873 155.838 317.9 155.838 316.847 155.314 315.361 155.314 314.308 155.314 311.686 155.314 309.511 155.838 307.324 156.362 302.26 156.886 297.182 159.61 292.469 163.404 290.631 165.101 288.794 167.197 286.62 169.419 284.783 171.64 282.945 174.365 280.757 177.634 277.881 182.475 274.992 188.994 272.369 196.056 270.181 202.574 268.007 209.616 266.604 217.328 265.117 224.37 264.416 231.433 263.63 238.999 263.28 246.712 263.63 254.277 264.416 262.492 265.818 278.819 269.479 295.669 275.342 314.07 278.218 322.306 281.108 331.046 285.133 340.184 288.444 347.896 292.034 355.986 296.046 364.202 299.721 371.264 303.396 378.83 307.758 385.893 309.511 389.141 311.349 391.887 313.523 395.68 315.711 399.599 317.9 402.848 320.074 406.117 322.612 409.911 325.937 413.704 329.163 417.477 335.377 426.237 342.712 433.803 349.964 440.321 360.19 449.605 371.467 457.171 383.432 462.662 389.281 465.386 395.495 467.482 402.045 469.18 404.584 469.703 407.46 470.227 410.784 470.751 414.36 471.401 418.036 471.925 421.36 472.449 430.8 472.973 440.226 473.497 451.152 473.497 456.665 473.497 462.43 473.497 468.98 472.973 482.866 472.973 496.683 471.925 510.134 470.751L516.685 470.227C531.988 469.18 548.413 468.131 564.404 468.131L580.829 468.131C582.582 468.131 584.756 468.656 586.593 468.656L608.096 468.656C624.873 468.131 638.324 466.434 651.439 464.212 666.377 460.964 679.128 456.123 691.106 449.605 696.17 446.336 701.332 442.542 706.395 438.77 711.122 434.327 715.484 430.009 720.197 424.539 728.936 414.207 736.637 402.198 742.485 388.618 745.375 382.099 747.9 375.058 749.737 366.947 751.926 359.255 753.412 351.145 754.465 342.405 755.938 327.776 755.938 312.499 753.763 296.717 752.627 289.13 750.789 281.439 748.602 274.376 746.413 267.334 743.538 260.795 740.297 254.801 738.46 252.055 736.637 249.96 734.448 247.235 732.26 245.014 730.072 242.918 727.196 241.22 721.685 237.427 715.484 235.205 710.421 234.179 707.097 233.131 703.52 232.481 699.845 231.957 698.793 231.433 697.306 231.433 695.819 230.909 693.645 230.909 691.457 230.385 688.918 229.861 684.556 228.688 680.881 228.164 677.654 227.116 674.33 225.943 671.09 224.37 667.429 222.149 663.839 220.074 660.528 217.328 657.288 214.583 654.314 211.838 651.088 208.589 647.764 205.32 641.213 197.754 634.663 188.994 628.449 180.904 627.06 178.682 625.223 175.936 623.385 173.715 616.133 163.928 607.746 153.616 598.657 146.051 594.28 142.257 589.567 139.512 584.756 137.29 579.693 135.194 573.843 134.021 568.064 133.497Z" stroke="#FDEDEF" stroke-linejoin="round" stroke-miterlimit="10" fill="#FBDAE0" fill-rule="evenodd" fill-opacity="0.290196"/><path d="M574.218 370.962C574.417 371.204 574.616 371.745 574.417 371.986 574.018 372.711 573.571 373.494 573.173 373.976 573.372 373.976 573.372 374.218 573.372 374.218 573.819 373.976 574.018 373.735 574.417 373.494 574.816 373.252 575.064 372.711 575.263 372.47 575.263 372.228 575.462 372.228 575.661 372.228 575.853 372.228 576.053 372.228 576.053 372.47 576.308 372.47 576.308 372.711 576.308 373.011 576.308 373.252 576.308 373.252 576.053 373.494 575.853 373.976 575.462 374.218 575.263 374.759 573.372 378.004 570.892 380.236 568.004 381.492 568.004 381.733 567.805 381.733 567.805 381.733L567.605 381.492C567.358 381.492 567.158 381.26 567.158 381.018 567.158 380.777 567.358 380.535 567.605 380.236 568.004 379.994 568.403 379.512 568.85 379.27L568.85 378.729C569.049 378.488 569.249 378.246 569.249 378.004 569.049 377.521 568.85 376.98 569.249 376.739 570.493 375.474 571.729 374.218 572.575 372.711 572.973 372.228 573.173 371.745 573.372 371.204 573.372 370.962 573.571 370.962 573.819 370.962ZM509.216 198.497C506.935 198.497 504.446 198.738 501.966 198.738 498.631 198.98 495.305 199.221 492.026 199.695 488.892 200.236 486.012 200.719 483.332 201.501 482.088 201.742 481.043 201.984 479.798 202.225 478.762 202.709 477.916 203.008 477.118 203.25L476.073 203.491 474.183 203.974C469.668 205.471 465.736 206.737 461.763 208.243 457.041 209.992 453.068 211.49 449.343 213.537 445.02 215.527 441.287 217.749 437.961 220.521 434.683 223.052 431.547 226.056 429.266 229.06 428.022 230.809 426.977 232.315 425.988 234.296 425.142 236.102 424.098 238.092 423.499 240.314 422.008 244.594 421.218 249.346 421.218 254.64 421.218 256.388 421.409 258.127 421.409 259.392 421.409 261.141 421.609 262.889 421.808 265.41 422.008 267.7 422.454 269.921 422.654 271.911L422.654 272.452 422.654 272.694C422.853 273.959 423.053 275.224 423.053 276.722L423.252 276.722C423.698 280.943 423.898 284.246 424.098 287.26 424.098 290.989 424.098 294.476 423.698 298.031L423.698 297.79C423.499 299.77 423.053 301.76 422.654 303.508 422.255 305.546 421.609 307.536 421.218 308.802L419.327 313.313C418.729 314.337 418.083 315.303 417.485 316.327 416.639 317.582 415.794 318.549 415.004 319.814 413.561 322.345 411.869 324.866 410.633 327.339 407.745 332.632 405.464 338.109 403.621 343.403 401.93 348.939 400.893 354.416 400.494 359.95 400.494 362.964 400.494 365.727 400.893 368.741 401.141 371.503 401.731 374.517 402.377 377.521 403.374 381.018 404.619 384.506 406.509 388.292 408.144 391.789 409.835 394.793 411.479 397.807L412.516 399.304C413.76 401.835 415.403 404.608 416.639 407.071 418.53 410.626 419.973 413.871 421.018 417.117L421.218 417.117C422.008 420.131 422.853 422.903 423.698 425.666 423.898 426.632 424.098 427.415 424.297 428.37 424.943 430.419 425.541 432.408 425.988 434.389 426.977 437.402 427.823 439.934 428.868 442.455 429.913 445.227 431.348 447.932 432.792 450.221 434.036 452.443 435.672 454.491 437.562 456.722 439.205 458.461 441.088 459.968 442.93 461.475 446.456 464.237 450.38 466.526 454.959 468.034 458.884 469.299 463.007 470.014 467.977 470.255 469.213 470.497 470.458 470.497 471.949 470.497 474.829 470.497 478.163 470.255 481.888 469.773 488.102 468.99 494.507 467.792 501.12 465.744 504.845 464.479 508.371 463.281 511.904 461.774L512.104 461.475 513.938 461.475 514.784 461.774 523.878 461.774C530.537 461.475 536.105 461.233 541.075 460.508 547.081 459.485 552.25 458.219 556.821 455.998 559.309 454.974 561.79 453.708 563.88 452.201 566.113 450.462 568.204 448.714 570.493 446.183 574.417 442.213 578.142 436.92 581.277 430.66 584.157 425.125 586.438 419.107 588.48 412.122 589.525 408.819 590.371 405.564 590.961 402.077 591.806 398.831 592.452 395.035 593.05 391.548 594.095 384.506 594.494 377.521 594.494 370.962 594.295 364.462 593.697 357.97 592.205 351.643 590.961 345.393 588.927 339.134 586.239 333.357 583.511 327.339 580.033 321.862 575.661 316.085 574.218 314.337 572.774 312.83 571.53 311.564 570.692 310.55 569.647 309.526 568.602 308.56L568.403 308.319 567.158 307.054C564.479 304.291 561.399 301.035 558.911 297.249 558.464 296.524 557.866 295.5 557.419 294.776 557.02 293.752 556.43 292.737 555.983 291.472 555.385 289.241 554.739 286.961 554.539 284.246 554.34 282.981 554.34 281.484 554.34 279.977 554.34 278.47 554.34 277.205 554.539 275.466 554.739 273.718 554.938 271.911 555.385 270.163 555.784 268.665 556.182 266.917 556.821 264.695 557.419 261.923 558.264 259.15 559.11 256.388L559.509 255.122 559.908 253.857C560.952 250.853 561.79 247.356 562.635 243.869 563.034 241.821 563.434 239.599 563.633 237.609 563.88 233.581 563.633 229.785 562.835 226.297 562.389 224.791 561.79 223.283 561.144 221.545 560.554 220.279 559.908 218.773 558.911 217.265 557.219 214.745 555.186 212.513 552.697 210.233 550.216 208.485 547.48 206.737 544.201 205.239 541.274 203.732 538.187 202.709 534.462 201.742 531.136 200.719 527.602 200.003 523.678 199.453 519.155 198.98 514.186 198.497 509.216 198.497Z" stroke="#FDEDEF" stroke-linejoin="round" stroke-miterlimit="10" fill="#FBDAE0" fill-rule="evenodd"/></g></svg>